<?xml version="1.0" encoding="utf-8"?>
<!-- Generator: Adobe Illustrator 17.0.0, SVG Export Plug-In . SVG Version: 6.00 Build 0)  -->
<!DOCTYPE svg PUBLIC "-//W3C//DTD SVG 1.1//EN" "http://www.w3.org/Graphics/SVG/1.1/DTD/svg11.dtd">
<svg version="1.1" id="Calque_1" xmlns="http://www.w3.org/2000/svg" xmlns:xlink="http://www.w3.org/1999/xlink" x="0px" y="0px"
	 width="560px" height="560px" viewBox="0 0 560 560" style="enable-background:new 0 0 560 560;" xml:space="preserve">
<g>
	<g>
		<g>
			<rect x="87.33" y="361.47" style="fill:#110239;" width="387.04" height="56.83"/>
			<path style="fill:#110239;" d="M487.36,400.35H74.34c-13.11,0-23.74-10.63-23.74-23.74V115.4c0-13.11,10.63-23.74,23.74-23.74
				h413.02c13.11,0,23.74,10.63,23.74,23.74v261.21C511.1,389.72,500.47,400.35,487.36,400.35z"/>
			<rect x="71.81" y="112.11" style="fill:#FEFEFE;" width="418.09" height="264.59"/>
			<g>
				<g>
					<path style="fill:#110239;" d="M5.72,482.76v8.44c0,4.67,5.08,8.45,11.35,8.45h527.55c6.27,0,11.35-3.79,11.35-8.45v-8.44H5.72
						z"/>
					<path style="fill:#110239;" d="M280.85,417.66l-225.85,0c-0.77,0.81-36.27,32.59-47.12,56.2c-4.64,10.09-1.61,15.4,7.03,15.4
						l265.94,0h265.94c8.63,0,11.66-5.31,7.03-15.4c-10.85-23.61-46.35-55.39-47.12-56.2H280.85z"/>
					<polygon style="fill:#9C9EB9;" points="527.4,477.19 46.17,477.19 79.52,427.82 494.05,427.82 					"/>
					<g>
						<g>
							<g>
								<g>
									<path style="fill:#D0D1DE;" d="M521.55,468.53l-1.04-1.54h-32.11l-5.98-11.98h30l-1.04-1.54h-29.73l-5.98-11.98h27.62
										l-1.04-1.54h-27.35l-6.05-12.12h-2.77l5.96,12.12h-34.38l-4.82-12.12h-2.77l4.73,12.12h-34.38l-3.59-12.12h-2.77
										l3.49,12.12h-34.38l-2.36-12.12h-2.77l2.26,12.12H325.9l-1.13-12.12H322l1.03,12.12h-32.63v-12.12h-3.05v12.12h-33.82
										l1.03-12.12h-2.77l-1.13,12.12h-34.38l2.26-12.12h-2.77l-2.36,12.12h-34.38l3.49-12.12h-2.77l-3.59,12.12h-34.38
										l4.73-12.12h-2.77l-4.82,12.12h-34.38l5.96-12.12h-2.78l-6.05,12.12H71.33l-1.04,1.54h30.59l-5.98,11.98H62.2l-1.04,1.54
										h32.98l-5.98,11.98H53.07l-1.04,1.54h35.36l-4.33,8.66h3.16l4.26-8.66h37.06l-3.45,8.66h3.16l3.38-8.66h37.06l-2.57,8.66
										h3.16l2.5-8.66h37.06l-1.69,8.66h3.16l1.62-8.66h37.06l-0.81,8.66h3.16l0.74-8.66h36.26v8.66h3.05v-8.66h35.07l0.74,8.66
										h3.16l-0.81-8.66h37.06l1.62,8.66h3.16l-1.69-8.66h37.06l2.5,8.66h3.16l-2.57-8.66h37.06l3.38,8.66h3.16l-3.45-8.66h37.06
										l4.26,8.66h3.16l-4.33-8.66H521.55z M141.17,441.49h34.52l-3.55,11.98H136.5L141.17,441.49z M103.76,441.49h34.52
										l-4.76,11.98H97.88L103.76,441.49z M128.15,466.98H91.23l5.89-11.98h35.79L128.15,466.98z M168.14,466.98h-36.91
										l4.67-11.98h35.79L168.14,466.98z M208.14,466.98h-36.91l3.45-11.98h35.79L208.14,466.98z M210.77,453.46h-35.65
										l3.45-11.98h34.52L210.77,453.46z M248.13,466.98h-36.91l2.24-11.98h35.79L248.13,466.98z M249.39,453.46h-35.65
										l2.24-11.98h34.52L249.39,453.46z M287.34,466.98h-36.12l1.02-11.98h35.1V466.98z M287.34,453.46h-34.97l1.02-11.98h33.95
										V453.46z M290.39,441.49h32.77l1.02,11.98h-33.79V441.49z M290.39,466.98v-11.98h33.92l1.02,11.98H290.39z M472.78,441.49
										l5.89,11.98h-35.65l-4.76-11.98H472.78z M435.38,441.49l4.67,11.98H404.4l-3.55-11.98H435.38z M326.04,441.49h34.52
										l2.24,11.98h-35.65L326.04,441.49z M328.41,466.98l-1.11-11.98h35.79l2.24,11.98H328.41z M363.45,441.49h34.52l3.45,11.98
										h-35.65L363.45,441.49z M368.41,466.98l-2.33-11.98h35.79l3.45,11.98H368.41z M408.4,466.98l-3.55-11.98h35.79l4.67,11.98
										H408.4z M448.4,466.98l-4.76-11.98h35.79l5.89,11.98H448.4z"/>
								</g>
							</g>
						</g>
					</g>
				</g>
				<path style="fill:#110239;" d="M280.85,489.27h-23.37c0.01,0.06-0.06,2.06,1.17,3.23c0.46,0.44,1.11,0.66,1.77,0.66h20.44h20.44
					c0.66,0,1.31-0.22,1.77-0.66c1.22-1.17,1.15-3.18,1.17-3.23H280.85z"/>
			</g>
		</g>
		<rect x="71.81" y="112.13" style="fill:#FEFEFE;" width="418.05" height="264.56"/>
		<polygon style="fill:#01C7E2;" points="288.6,247.09 250.87,263.87 203.16,216.16 71.81,316.25 71.81,376.7 489.86,376.7 
			489.86,65.82 315.2,277.19 		"/>
		<g>
			<rect x="154.25" y="295.94" style="fill:#FEFEFE;" width="13.34" height="10.11"/>
			<rect x="173.06" y="295.94" style="fill:#FEFEFE;" width="13.34" height="10.11"/>
			<rect x="191.88" y="295.94" style="fill:#FD425F;" width="13.34" height="10.11"/>
			<rect x="210.69" y="295.94" style="fill:#FEFEFE;" width="13.34" height="10.11"/>
			<rect x="229.51" y="295.94" style="fill:#FEFEFE;" width="13.34" height="10.11"/>
			<rect x="248.32" y="295.94" style="fill:#FD425F;" width="13.34" height="10.11"/>
			<rect x="154.25" y="313.22" style="fill:#FEFEFE;" width="13.34" height="10.12"/>
			<rect x="173.06" y="313.22" style="fill:#FEFEFE;" width="13.34" height="10.12"/>
			<rect x="191.88" y="313.22" style="fill:#FEFEFE;" width="13.34" height="10.12"/>
			<rect x="210.69" y="313.22" style="fill:#FEFEFE;" width="13.34" height="10.12"/>
			<rect x="229.51" y="313.22" style="fill:#FD425F;" width="13.34" height="10.12"/>
			<rect x="248.32" y="313.22" style="fill:#FEFEFE;" width="13.34" height="10.12"/>
			<rect x="154.25" y="330.49" style="fill:#FEFEFE;" width="13.34" height="10.12"/>
			<rect x="173.06" y="330.49" style="fill:#FD425F;" width="13.34" height="10.12"/>
			<rect x="191.88" y="330.49" style="fill:#FEFEFE;" width="13.34" height="10.12"/>
			<rect x="210.69" y="330.49" style="fill:#FEFEFE;" width="13.34" height="10.12"/>
			<rect x="229.51" y="330.49" style="fill:#FEFEFE;" width="13.34" height="10.12"/>
			<rect x="248.32" y="330.49" style="fill:#FEFEFE;" width="13.34" height="10.12"/>
			<rect x="154.25" y="347.76" style="fill:#FEFEFE;" width="13.34" height="10.12"/>
			<rect x="173.06" y="347.76" style="fill:#FEFEFE;" width="13.34" height="10.12"/>
			<rect x="191.88" y="347.76" style="fill:#FD425F;" width="13.34" height="10.12"/>
			<rect x="210.69" y="347.76" style="fill:#FEFEFE;" width="13.34" height="10.12"/>
		</g>
		<g>
			<g>
				<polygon style="fill:#FFFFFF;" points="293.11,267.33 291.78,266 290.08,266.71 289.01,264.09 292.33,262.69 294.98,265.3 				
					"/>
			</g>
			<g>
				<path style="fill:#FFFFFF;" d="M262.71,278.22l-1.07-2.63l4.58-1.92l1.07,2.63L262.71,278.22z M271.86,274.37l-1.07-2.63
					l4.57-1.92l1.07,2.62L271.86,274.37z M280.98,270.54l-1.07-2.62l4.55-1.91l1.07,2.62L280.98,270.54z"/>
			</g>
			<g>
				<polygon style="fill:#FFFFFF;" points="254.82,281.54 252.05,279.12 253.82,276.97 255.29,278.26 257.06,277.51 258.13,280.15 
									"/>
			</g>
			<g>
				<path style="fill:#FFFFFF;" d="M248.01,275.59l-4.05-3.53l1.77-2.15l4.04,3.53L248.01,275.59z M239.92,268.52l-4.05-3.53
					l1.77-2.15l4.04,3.53L239.92,268.52z M231.82,261.46l-4.05-3.53l1.78-2.14l4.05,3.53L231.82,261.46z M223.72,254.39l-4.05-3.53
					l1.78-2.14l4.05,3.53L223.72,254.39z M215.63,247.32l-4.05-3.53l1.78-2.14l4.05,3.53L215.63,247.32z"/>
			</g>
			<g>
				<polygon style="fill:#FFFFFF;" points="207.53,240.25 206.22,239.11 204.82,240.09 203.23,237.75 206.37,235.54 209.31,238.11 
									"/>
			</g>
			<g>
				<path style="fill:#FFFFFF;" d="M81.23,326.91l-1.63-2.4l4.86-3.41l1.63,2.4L81.23,326.91z M90.94,320.09l-1.62-2.4l4.84-3.4
					l1.62,2.39L90.94,320.09z M100.62,313.29l-1.62-2.39l4.83-3.39l1.62,2.39L100.62,313.29z M110.26,306.51l-1.62-2.39l4.81-3.37
					l1.62,2.38L110.26,306.51z M119.87,299.76l-1.62-2.38l4.8-3.36l1.62,2.38L119.87,299.76z M129.45,293.04l-1.62-2.38l4.77-3.35
					l1.62,2.37L129.45,293.04z M138.99,286.34l-1.61-2.37l4.76-3.34l1.61,2.37L138.99,286.34z M148.5,279.66l-1.61-2.37l4.74-3.33
					l1.61,2.36L148.5,279.66z M157.97,273l-1.61-2.36l4.72-3.32l1.61,2.36L157.97,273z M167.41,266.37l-1.61-2.36l4.71-3.3
					l1.61,2.35L167.41,266.37z M176.81,259.77l-1.61-2.35l4.69-3.29l1.6,2.35L176.81,259.77z M186.18,253.18l-1.59-2.35l4.68-3.28
					l1.59,2.35L186.18,253.18z M195.52,246.63l-1.6-2.34l4.66-3.27l1.6,2.34L195.52,246.63z"/>
			</g>
			<g>
				<path style="fill:#FFFFFF;" d="M325.57,285.76l-2.05-1.91l3.59-4.17l2.05,1.91L325.57,285.76z M332.73,277.41l-2.05-1.91
					l3.57-4.16l2.05,1.9L332.73,277.41z M339.87,269.1l-2.04-1.9l3.56-4.14l2.04,1.9L339.87,269.1z M346.98,260.82l-2.04-1.9
					l3.55-4.13l2.04,1.9L346.98,260.82z M354.07,252.56l-2.04-1.9l3.54-4.11l2.04,1.89L354.07,252.56z M361.13,244.33l-2.03-1.89
					l3.52-4.1l2.03,1.89L361.13,244.33z M368.16,236.14l-2.03-1.89l3.51-4.08l2.03,1.89L368.16,236.14z M375.18,227.97l-2.03-1.88
					l3.5-4.07l2.02,1.88L375.18,227.97z M382.16,219.82l-2.02-1.88l3.49-4.06l2.02,1.88L382.16,219.82z M389.13,211.71l-2.02-1.87
					l3.47-4.05l2.02,1.87L389.13,211.71z M396.06,203.63l-2.02-1.87l3.46-4.03l2.01,1.87L396.06,203.63z M402.98,195.57l-2.01-1.87
					l3.45-4.02l2.01,1.87L402.98,195.57z M409.87,187.54l-2.01-1.87l3.44-4l2.01,1.86L409.87,187.54z M416.74,179.54l-2-1.86
					l3.43-3.99l2,1.86L416.74,179.54z M423.59,171.57l-2-1.86l3.42-3.97l2,1.86L423.59,171.57z M430.41,163.62l-2-1.86l3.4-3.96
					l2,1.86L430.41,163.62z M437.2,155.7l-1.99-1.86l3.39-3.95l1.99,1.86L437.2,155.7z M443.98,147.81l-1.99-1.85l3.38-3.93
					l1.99,1.85L443.98,147.81z M450.73,139.95l-1.99-1.85l3.37-3.92l1.99,1.85L450.73,139.95z M457.45,132.11l-1.98-1.85l3.36-3.91
					l1.98,1.85L457.45,132.11z M464.16,124.3l-1.98-1.85l3.35-3.89l1.98,1.84L464.16,124.3z M470.84,116.51l-1.98-1.84l3.33-3.88
					l1.98,1.84L470.84,116.51z M477.06,109.14l-1.98-1.84l3.33-3.88l1.98,1.84L477.06,109.14z M483.28,101.76l-1.98-1.84l3.33-3.88
					l1.98,1.84L483.28,101.76z"/>
			</g>
			<g>
				<polygon style="fill:#FFFFFF;" points="319.26,293.1 316.23,290.12 318.09,288.09 319.06,289.04 319.92,288.03 321.98,289.94 
									"/>
			</g>
			<g>
				<path style="fill:#FFFFFF;" d="M311.61,285.56l-4.62-4.56l1.86-2.03l4.62,4.56L311.61,285.56z M302.36,276.44l-4.62-4.56
					l1.87-2.02l4.62,4.56L302.36,276.44z"/>
			</g>
		</g>
		<g>
			<g>
				<path style="fill:#FD425F;" d="M478.75,34.93L315.79,241.51l-26.37-31.83l-38.6,18.31l-49.03-52.32L71.81,281.35v12.7
					l129.5-105.28l48.3,51.54l38.37-18.2l27.9,33.68L485.01,41.41C482.8,39.35,480.65,37.23,478.75,34.93z"/>
			</g>
			<polygon style="fill:#FD425F;" points="504,16.23 465.55,29.25 490.98,54.68 			"/>
		</g>
		<g>
			<path style="fill:#FD425F;" d="M122.12,145.82c8.69,0.65,16.62,4.36,16.67,13.05l-14.48,0.08c-0.1-3.28-3.47-3.97-5.58-3.95
				c-1.33,0.01-5.63,0.03-5.62,2.69c0.04,5.95,26.69-0.39,26.79,16.44c0.06,10.09-7.82,13.9-17.52,14.66l0.69,10.72l-8.84,0.05
				l0.48-10.81c-9-0.89-17.4-5.06-17.46-14.14l14.48-0.08l0,0.31c0.1,3.99,4.57,4.75,6.84,4.73c2.19-0.01,6.5-0.19,6.48-3.09
				c-0.03-6.18-26.69-0.39-26.79-16.67c-0.05-9.39,7.21-13.04,16.2-13.87l-0.61-10.8l8.84-0.05L122.12,145.82z"/>
		</g>
	</g>
	<g>
		<path style="fill:#110239;" d="M342.98,436.91c0,0,0.6,11.77-1.11,13.52c-1.71,1.75-25.02,4.29-27.2,2.31
			c-2.18-1.98-1.28-5.69,3.62-7.47c5.26-1.92,8.01-0.66,11.27-2.33c3.26-1.67,1.95-6.91,1.95-6.91L342.98,436.91z"/>
		<path style="fill:#110239;" d="M419.4,436.91c0,0-0.6,11.77,1.11,13.52c1.71,1.75,25.02,4.29,27.2,2.31
			c2.18-1.98,1.28-5.69-3.62-7.47c-5.26-1.92-8.01-0.66-11.27-2.33c-3.26-1.67-1.95-6.91-1.95-6.91L419.4,436.91z"/>
		<path style="fill:#FD425F;" d="M420.67,368.83c-2.54-12.82-16.2-47.82-21.26-59.96c-2.04-0.69-4.26-1.36-6.52-2.02
			c0.59-2.73,0.99-5.08,1.43-7.14c-3.96,1.05-8.17,1.55-12.43,2.91c-0.58,0.18-1.22,0.38-1.9,0.58c-0.68-0.2-1.32-0.39-1.9-0.58
			c-4.26-1.35-8.47-1.86-12.43-2.91c0.44,2.06,0.83,4.41,1.43,7.14c-2.26,0.66-4.49,1.34-6.52,2.02
			c-5.06,12.14-18.72,47.14-21.26,59.96c-3.52,17.74-9.4,70.33-9.4,70.33l15,1.98c0,0,15.06-70.66,17.21-74.57
			c3.86-7.02,7.91-13.23,11.52-18.73c3.01-4.59,9.71-4.59,12.72,0c3.61,5.5,7.66,11.71,11.52,18.73
			c2.15,3.91,17.21,74.57,17.21,74.57l15-1.98C430.07,439.16,424.19,386.57,420.67,368.83z"/>
		<path style="fill:#F88667;" d="M424.8,150.19c-0.88-6.09-1.79-7.03-3.84-8.23c-0.96-0.56-1.91-1.05-2.57-1.93
			c-0.68-0.91-1.8-1.71-2.74-2.49c-0.88-0.73-2.04-1.5-2.44-2.72c-0.47-1.46,1.44-1.06,2.68-0.61c1.35,0.49,3.87,4.19,5.3,3.68
			c1.43-0.51-1.93-4.83-2.61-5.68c-1.61-2.01-3.52-1.74-5.65-2.66c-1.25-0.54-1.65-1.17-0.3-1.97c1.01-0.6,2.28-0.11,3.3,0.24
			c2.07,0.69,4.26,1.93,5.76,3.58c-1.01-1.43-3.46-3.09-5.02-3.89c-1.08-0.55-6.1-2.09-5.38-3.87c1.44-3.57,11.19,3.15,12.26,5.04
			c-1.25-1.77-3.05-2.99-4.81-4.24c-1.03-0.74-3.55-2.37-1.44-3.22c3.12-1.25,6.89,4.53,9.03,6.82c-0.89-1.94-2.18-3.13-3.63-4.9
			c-1.72-2.09,0.42-2.63,2.55-0.79c0.89,0.77,2.42,2.6,2.74,3.01c3.4,4.29,3.53,7.17,4.13,12.4c0.22,1.88,0.26,4.94,0.88,10.41
			C433.36,151.3,427.44,149.68,424.8,150.19z"/>
		<path style="fill:#F88667;" d="M278.86,235.28c-5.76-2.16-6.47-4.48-7.2-6.73c-0.34-1.06-0.62-2.09-1.34-2.93
			c-0.74-0.86-1.29-2.12-1.85-3.21c-0.53-1.02-1.03-2.32-2.14-2.97c-1.32-0.78-1.34,1.18-1.17,2.49c0.19,1.42,3.27,4.68,2.46,5.97
			c-0.81,1.29-4.31-2.92-4.99-3.76c-1.62-2-0.94-3.81-1.39-6.09c-0.26-1.33-0.79-1.87-1.86-0.72c-0.8,0.85-0.59,2.21-0.48,3.28
			c0.24,2.17,0.97,4.58,2.27,6.39c-1.18-1.29-2.28-4.04-2.73-5.74c-0.31-1.17-0.74-6.4-2.63-6.08c-3.79,0.64,0.69,11.61,2.3,13.05
			c-1.47-1.6-2.26-3.61-3.12-5.6c-0.5-1.17-1.56-3.98-2.84-2.09c-1.89,2.78,2.96,7.7,4.73,10.28c-1.71-1.29-2.59-2.8-4.01-4.59
			c-1.68-2.13-2.65-0.16-1.32,2.32c0.56,1.04,2.03,2.92,2.36,3.32c3.46,4.24,6.24,4.98,11.23,6.69c1.79,0.61,3.68,0.76,9.59,3.62
			C277.59,243.55,277.8,237.74,278.86,235.28z"/>
		<path style="fill:#F88667;" d="M387.38,223.87c-3.27,0.64-6.7,0.74-9.82,0.48c-1.14-0.1-2.32-0.35-3.44-0.74
			c0.14,4.09,0.14,13.57-2.73,17.46c0,0,1.02,4.58,9.37,4.7c8.36,0.12,9.38-4.7,9.38-4.7S387.07,234.25,387.38,223.87z"/>
		<path style="fill:#E5E6ED;" d="M419.51,246.97c-2.28-2.9-13.07-9.3-20.39-10.46c-11.86-1.88-24.01-1.88-35.87,0
			c-7.31,1.16-14.59,3.01-16.86,5.91c-2.85,3.64,5.68,24.06,7.1,42.79c1.18,15.53,3.29,27.54,3.29,27.54
			c4.68,8.61,41.32,8.84,46,0.24c0,0,0.88-13.27,3.42-27.77C409.52,266.35,422.39,250.66,419.51,246.97z"/>
		<path style="fill:#ABADC4;" d="M360.67,280.9c0.24-5.04,1.9-14.07,0.05-18.69c-2.66-6.61-8.65-9.08-14.2-12.1
			c1.66,8.45,6,22.13,6.98,35.1c1.18,15.53,3.29,27.54,3.29,27.54c0.86,1.59,2.89,2.86,5.55,3.87
			C357.13,306.66,360.2,290.73,360.67,280.9z"/>
		<path style="fill:#F88667;" d="M398.62,201.13c0,0-17.31-10.18-19.93-7.68c-2.62,2.51-6.73,11.02-8.72,12.32
			c-1.99,1.3-5.1,2.53-4.82,4.06c0.28,1.53,1.28,1.63,1.2,3.18c-0.08,1.54-3.59,8.92-1.67,11.1c1.92,2.18,14.49,6.98,22.04,1.95
			C394.28,221.04,407.15,205.69,398.62,201.13z"/>
		<path style="fill:#110239;" d="M402.44,204.87l-14.58,0.23c0,0-2.75,7.21-8.96,11.84c0,0,0.35,2.15,1.91,1.71
			c1.56-0.44,2.52-0.62,3.57-2.26s4.19-5.88,6.33-2.15c2.14,3.73-2.43,5.01-4.35,4.98c0,0-6.64,8.04-1.47,9.55
			c0,0,5.76-0.86,14.53-10.16C408.17,209.3,406.37,204.14,402.44,204.87z"/>
		<path style="fill:#110239;" d="M374.87,187.83c0,0-7.08,4.3,1.12,12.92c8.2,8.62,27.52,4.08,27.52,4.08s2.05-5.62-4.93-11.51
			c-5.22-4.4-10.94-6.65-15.54-4.54C375.23,192.37,374.87,187.83,374.87,187.83z"/>
		<path style="fill:#E5E6ED;" d="M276.96,232.52l-6.19,9.87c0,0,15.95,15.31,34.27,27.46c10.67,7.08,47.21-4.24,52.86-5.94
			c8.07-2.42,14.13-19.49,0.67-25.83c-7.88-3.72-39.51,20.32-47.26,16.24C301.6,249.21,276.96,232.52,276.96,232.52z"/>
		<path style="fill:#E5E6ED;" d="M422.12,147.63l12.3-2.06c0,0,8.12,35.52,7.64,48.32c-0.48,12.79-20.82,59.29-25.47,62.92
			c-5.58,4.37-21.04-8.25-9.83-21.86c11.21-13.61,18.47-41.63,18.77-42.78S422.12,147.63,422.12,147.63z"/>
	</g>
	<rect x="167.75" y="127.36" style="fill:#D0D1DE;" width="99.23" height="8.93"/>
	<rect x="167.75" y="141.47" style="fill:#D0D1DE;" width="99.23" height="8.92"/>
	<rect x="167.75" y="155.57" style="fill:#D0D1DE;" width="75.1" height="8.93"/>
</g>
</svg>
