<?xml version="1.0" encoding="utf-8"?>
<!-- Generator: Adobe Illustrator 17.0.0, SVG Export Plug-In . SVG Version: 6.00 Build 0)  -->
<!DOCTYPE svg PUBLIC "-//W3C//DTD SVG 1.1//EN" "http://www.w3.org/Graphics/SVG/1.1/DTD/svg11.dtd">
<svg version="1.1" id="Calque_1" xmlns="http://www.w3.org/2000/svg" xmlns:xlink="http://www.w3.org/1999/xlink" x="0px" y="0px"
	 width="960px" height="960px" viewBox="0 0 960 960" style="enable-background:new 0 0 960 960;" xml:space="preserve">
<path style="fill:#D7DAFF;" d="M47.15,645.85c-20.13,13.6-34.92,31.81-39.7,60.15c-5.05,29.94-2.4,60.99,6.3,90.7h934.25
	c4.75,0,8.6-3.85,8.6-8.6V645.85H47.15z"/>
<g>
	<circle style="fill:#0B50B9;" cx="453.78" cy="353.48" r="156.71"/>
	<circle style="fill:#FFFFFF;" cx="453.78" cy="353.48" r="133.68"/>
	<g>
		<path style="fill:#110239;" d="M453.94,356.84h-0.05c-1.44,0-2.6-1.17-2.6-2.6V246.94c0-1.44,1.17-2.6,2.6-2.6h0.05
			c1.44,0,2.6,1.17,2.6,2.6v107.29C456.54,355.67,455.37,356.84,453.94,356.84z"/>
		<path style="fill:#110239;" d="M456.23,355.65l-0.02,0.05c-0.68,1.27-2.26,1.74-3.53,1.05l-63.59-34.21
			c-1.27-0.68-1.74-2.26-1.05-3.53l0.02-0.05c0.68-1.27,2.26-1.74,3.53-1.05l63.59,34.21C456.44,352.81,456.91,354.39,456.23,355.65
			z"/>
	</g>
</g>
<g>
	<circle style="fill:#FB961E;" cx="745.04" cy="269.59" r="88.78"/>
	<circle style="fill:#FFFFFF;" cx="745.04" cy="269.59" r="67.29"/>
	<circle style="fill:#FB961E;" cx="745.04" cy="269.59" r="48.07"/>
	<circle style="fill:#FFFFFF;" cx="745.04" cy="269.59" r="33.08"/>
	<circle style="fill:#FB961E;" cx="745.04" cy="269.59" r="15.27"/>
</g>
<g>
	<path style="fill:#C6C7D7;" d="M840.73,461.51c17.54-5.3,34.46-5.83,39.47-26.26c3.97-16.17-11.08-29.26,1.17-41.46
		c7.37-7.34,19.7-12.65,21.28-23.94c1.64-11.76-13.81-17.33-12.43-28.59c1.14-9.31,13.64-11.34,9.01-22.77
		c-4.1-10.13-13.61-11.72-20.69-8.79c-9.47,3.91-9.25,12.96-15.04,19.91c-3.86,4.64-10.48,1.18-16.92,1.14
		c-6.42-0.04-14.47,1.45-19.51,4.86c-16.39,11.06-0.23,28.69-1.61,44.7c-1.33,15.48-23.67,8.76-33.38,21.38
		c-11.34,14.74,0.98,36.58,14.88,45.96C816.22,453.89,828.88,465.09,840.73,461.51z"/>
	<g>
		<path style="fill:#FFFFFF;" d="M823,459.53c0.09,0.04,0.19,0.07,0.3,0.08c0.59,0.07,1.16-0.34,1.25-0.91
			c0.07-0.42,7.28-40.69,32.73-69.58c14.33-16.26,16.42-31.6,18.06-43.6c0.95-7,1.77-12.95,4.81-16.47c0.24-0.28,0.16-0.79-0.2-1.14
			c-0.37-0.36-0.85-0.39-1.09-0.11c-3.28,3.77-4.13,9.91-5.13,17.13c-1.64,11.83-3.73,26.98-17.87,42.91
			c-25.98,29.26-33.37,70.18-33.45,70.61C822.32,458.91,822.58,459.35,823,459.53z"/>
	</g>
	<g>
		<path style="fill:#FFFFFF;" d="M856,388.11c0.4,0.23,0.89,0.17,1.14-0.17c0.27-0.37,0.16-0.94-0.25-1.27
			c-6.39-5-11.36-15.49-8.41-22.78c0.35-0.86,0.76-1.78,1.2-2.74c2.06-4.55,4.57-10.11,2.38-14.99c-1.08-2.39-3.21-4.42-6.31-6.05
			c-0.49-0.25-1.01-0.12-1.17,0.3c-0.16,0.42,0.1,0.93,0.59,1.21c2.68,1.4,4.38,3,5.25,4.93c1.87,4.16-0.51,9.39-2.46,13.66
			c-0.45,0.98-0.87,1.92-1.23,2.8c-3.4,8.33,2.18,19.61,9.15,25.04C855.92,388.06,855.96,388.09,856,388.11z"/>
	</g>
	<g>
		<path style="fill:#FFFFFF;" d="M860.83,391.19c3.26,1.8,6.32,2.45,9.14,1.95c4.36-0.78,8-4.36,10.57-10.3
			c0.25-0.58,0.52-1.26,0.82-2c1.67-4.17,4.15-10.37,7.93-11.35c1.23-0.32,2.51-0.05,3.9,0.81c0.39,0.24,0.83,0.13,0.98-0.25
			c0.15-0.37-0.04-0.87-0.42-1.11c0,0-0.01,0-0.01-0.01c-1.76-1.09-3.46-1.44-5.07-1.04c-4.4,1.11-7.04,7.67-8.81,12.09
			c-0.3,0.73-0.56,1.4-0.81,1.97c-2.39,5.49-5.69,8.79-9.56,9.46c-3.38,0.58-7.25-0.81-11.49-4.18c-0.43-0.35-0.98-0.29-1.26,0.08
			c-0.28,0.37-0.17,0.94,0.24,1.27C858.28,389.63,859.57,390.49,860.83,391.19z"/>
	</g>
	<g>
		<path style="fill:#FFFFFF;" d="M822.78,440.49c1.21,0.55,2.49,0.9,3.82,0.97c0.59,0.03,1.09-0.4,1.13-0.96
			c0.04-0.56-0.39-1.04-0.99-1.08c-6.99-0.41-12.78-10.88-14.01-16.62c-0.51-2.38-0.03-5.46,0.49-8.7
			c0.9-5.72,1.83-11.57-2.55-15.24c-0.46-0.43-1.17-0.39-1.56,0c-0.4,0.4-0.35,1.03,0.12,1.42c3.48,2.91,2.62,8.23,1.79,13.43
			c-0.55,3.43-1.07,6.69-0.48,9.44C811.65,428.34,816.19,437.47,822.78,440.49z"/>
	</g>
	<g>
		<path style="fill:#FFFFFF;" d="M831.46,444.03c1.19,0.54,2.5,0.89,3.93,1.03c7.82,0.79,17.02-4.68,21.21-8.43
			c2.19-1.97,3.93-5.41,5.75-9c2.83-5.6,5.7-11.28,10.15-11.11c0.47,0.02,0.84-0.37,0.82-0.86c-0.02-0.49-0.42-0.9-0.89-0.93
			c-5.49-0.22-8.76,6.2-11.71,11.99c-1.75,3.45-3.43,6.74-5.38,8.47c-3.81,3.38-12.61,8.62-19.72,7.88
			c-2.83-0.3-5.08-1.54-6.67-3.68c-0.34-0.45-0.99-0.56-1.48-0.24c-0.48,0.33-0.59,0.96-0.25,1.42
			C828.38,442.1,829.79,443.26,831.46,444.03z"/>
	</g>
</g>
<g>
	<path style="fill:#0B50B9;" d="M273.24,647.11c-15.37-9.9-54.87-18.13-51.58-41.21c2.8-19.63,40.38-27.86,30.02-47.67
		c-6.13-11.72-12.53-21.4-8.46-37.82c4.43-17.89,32.98-16.84,38.03-33.72c4.34-14.5-11.13-30.67,2.67-43.41
		c12.26-11.31,33.54-1.9,39.66,10.01c7.66,14.9-5.91,26.72-4.06,41.04c1.18,9.12,10.01,9.93,16.3,14.78
		c6.02,4.64,12.32,11.98,14.65,19.17c7,21.61-16.15,31.15-23.61,48.23c-6.9,15.82,14.81,18.67,15.83,33.47
		c1.1,15.98-18.08,30.25-33.27,34.28C298.92,647.04,282.77,653.24,273.24,647.11z"/>
	<g>
		<path style="fill:#FFFFFF;" d="M290.51,650.03c-0.1,0.01-0.2,0.01-0.3-0.01c-0.56-0.09-0.87-0.58-0.7-1.09
			c0.12-0.37,12.48-38.52,2.38-79.27c-6.74-27.16-0.38-47.54,4.83-64.26c3.15-10.09,5.89-18.9,4.54-26.57
			c-0.11-0.63,0.32-1.26,0.95-1.41c0.66-0.16,1.25,0.24,1.36,0.86c1.43,8.22-1.4,17.27-4.65,27.64
			c-5.15,16.43-11.43,36.48-4.87,63.1c10.16,41.27-2.4,79.86-2.53,80.24C291.38,649.68,290.96,649.98,290.51,650.03z"/>
	</g>
	<g>
		<path style="fill:#FFFFFF;" d="M293.74,569.25c-0.54,0.04-1.01-0.29-1.09-0.8c-0.09-0.56,0.33-1.12,0.94-1.25
			c9.21-2,19.82-10.69,21-20.54c0.14-1.18,0.25-2.48,0.37-3.85c0.55-6.55,1.24-14.77,6.31-19.08c2.48-2.11,5.77-3.03,9.73-2.8
			c0.61,0.04,1.03,0.56,0.93,1.16c-0.1,0.6-0.64,1.02-1.28,1.03c-3.4-0.2-6,0.52-8,2.21c-4.29,3.65-4.95,11.34-5.48,17.46
			c-0.12,1.39-0.24,2.71-0.38,3.92c-1.36,11.18-12.92,20.36-22.9,22.52C293.85,569.24,293.8,569.25,293.74,569.25z"/>
	</g>
	<g>
		<path style="fill:#FFFFFF;" d="M287.03,570.04c-4.47,0.23-8.18-0.71-11.06-2.84c-4.57-3.38-6.93-9.74-6.78-18.45
			c0.02-0.86,0.06-1.87,0.11-2.97c0.27-6.28,0.7-15.86-3.51-19.93c-1.4-1.35-3.19-1.98-5.49-1.92c-0.64,0.02-1.16-0.47-1.14-1.09
			c0.02-0.61,0.54-1.13,1.18-1.15c0,0,0.01,0,0.01,0c2.91-0.08,5.31,0.78,7.13,2.54c4.86,4.72,4.4,14.86,4.09,21.49
			c-0.05,1.08-0.09,2.07-0.11,2.92c-0.15,8.06,1.92,13.88,5.97,16.87c3.45,2.56,8.41,3.12,14.7,1.71c0.63-0.15,1.17,0.21,1.27,0.77
			c0.09,0.56-0.32,1.13-0.93,1.26C290.56,569.69,288.74,569.95,287.03,570.04z"/>
	</g>
	<g>
		<path style="fill:#FFFFFF;" d="M299.37,633.81c-1.32,0.12-2.61,0.04-3.84-0.29c-0.54-0.15-0.8-0.68-0.57-1.19
			c0.23-0.51,0.83-0.8,1.39-0.65c6.34,1.75,16.17-5.59,19.93-10.22c1.57-1.93,2.65-4.82,3.8-7.89c2.06-5.49,4.2-11.2,9.63-12.89
			c0.59-0.21,1.14,0.09,1.26,0.6c0.12,0.52-0.24,1.08-0.81,1.25c-4.28,1.34-6.22,6.5-8.09,11.46c-1.21,3.23-2.36,6.28-4.16,8.49
			C314.55,626.63,306.46,633.15,299.37,633.81z"/>
	</g>
	<g>
		<path style="fill:#FFFFFF;" d="M289.94,634.32c-1.35,0.13-2.72,0.03-4.12-0.27c-7.85-1.71-14.5-9.88-17.08-14.99
			c-1.38-2.75-1.59-6.84-1.81-11.19c-0.35-6.95-0.72-14.21-5.85-16.12c-0.55-0.21-0.78-0.8-0.52-1.33c0.27-0.52,0.94-0.77,1.49-0.57
			c6.31,2.37,6.71,10.59,7.07,17.77c0.2,4.16,0.4,8.07,1.62,10.5c2.32,4.64,8.65,12.5,15.79,14.07c2.77,0.61,5.42,0.19,7.86-1.23
			c0.51-0.29,1.16-0.19,1.44,0.25c0.27,0.44,0.08,1.03-0.43,1.33C293.64,633.55,291.81,634.14,289.94,634.32z"/>
	</g>
</g>
<g>
	<path style="fill:#110239;" d="M816.32,578.96c-6.58-9.8-27.91-24.8-20.04-37.65c6.69-10.93,31.08-6.19,30.01-20.59
		c-0.64-8.52-1.95-15.9,4.66-24.6c7.21-9.48,23.87-1.55,31.19-10.26c6.29-7.49,1.25-21.04,12.7-25.07
		c10.17-3.57,20.38,7.46,20.96,16.09c0.73,10.8-10.34,14.34-12.91,23.3c-1.63,5.71,3.4,8.45,5.89,12.94
		c2.38,4.3,4.24,10.26,3.78,15.12c-1.38,14.61-17.56,14.35-26.35,22.57c-8.14,7.61,4.01,14.87,0.82,23.91
		c-3.44,9.76-18.47,13.32-28.51,11.81C831.57,585.5,820.4,585.04,816.32,578.96z"/>
	<g>
		<path style="fill:#FFFFFF;" d="M825.81,585.12c-0.06-0.02-0.12-0.05-0.17-0.08c-0.31-0.2-0.37-0.57-0.14-0.82
			c0.17-0.19,17.26-19.66,21.7-46.41c2.96-17.84,11.94-28.3,19.31-36.88c4.45-5.18,8.33-9.7,9.5-14.6c0.1-0.4,0.51-0.67,0.93-0.59
			c0.43,0.07,0.68,0.46,0.58,0.86c-1.25,5.24-5.25,9.88-9.83,15.21c-7.26,8.43-16.12,18.71-19.04,36.18
			c-4.54,27.08-21.87,46.76-22.04,46.95C826.42,585.14,826.09,585.21,825.81,585.12z"/>
	</g>
	<g>
		<path style="fill:#FFFFFF;" d="M848.41,538.03c-0.33-0.11-0.53-0.43-0.44-0.75c0.09-0.35,0.48-0.58,0.88-0.5
			c5.97,1.17,14.49-1.27,17.72-6.81c0.39-0.67,0.79-1.41,1.2-2.19c2-3.74,4.52-8.44,8.63-9.7c2.01-0.61,4.2-0.32,6.49,0.83
			c0.35,0.18,0.47,0.59,0.26,0.93c-0.21,0.33-0.64,0.44-1.02,0.28c-1.96-0.99-3.69-1.23-5.31-0.74c-3.48,1.07-5.84,5.46-7.72,8.96
			c-0.43,0.79-0.83,1.55-1.23,2.23c-3.67,6.29-12.87,8.77-19.35,7.5C848.48,538.05,848.44,538.04,848.41,538.03z"/>
	</g>
	<g>
		<path style="fill:#FFFFFF;" d="M844.23,536.78c-2.71-1.01-4.67-2.52-5.83-4.52c-1.85-3.17-1.62-7.55,0.7-12.68
			c0.23-0.51,0.51-1.09,0.83-1.74c1.77-3.65,4.47-9.23,3.02-12.72c-0.48-1.16-1.39-1.99-2.76-2.54c-0.39-0.16-0.57-0.57-0.4-0.94
			c0.17-0.36,0.61-0.53,0.99-0.38c0,0,0.01,0,0.01,0c1.75,0.7,2.95,1.82,3.58,3.33c1.67,4.04-1.2,9.94-3.07,13.79
			c-0.3,0.63-0.58,1.2-0.81,1.7c-2.15,4.74-2.41,8.72-0.78,11.54c1.39,2.4,4.19,4,8.28,4.78c0.41,0.07,0.64,0.43,0.56,0.78
			c-0.09,0.36-0.48,0.58-0.87,0.51C846.41,537.47,845.26,537.16,844.23,536.78z"/>
	</g>
	<g>
		<path style="fill:#FFFFFF;" d="M835.22,577.76c-0.82-0.27-1.56-0.64-2.2-1.16c-0.28-0.23-0.3-0.61-0.03-0.85
			c0.27-0.24,0.7-0.26,0.99-0.03c3.31,2.66,11.02,0.82,14.44-0.96c1.42-0.74,2.81-2.18,4.27-3.71c2.63-2.73,5.36-5.57,9.01-5.18
			c0.4,0.03,0.65,0.35,0.59,0.68c-0.06,0.34-0.42,0.58-0.8,0.54c-2.88-0.3-5.36,2.26-7.73,4.73c-1.55,1.61-3.01,3.12-4.64,3.97
			C846.06,577.39,839.6,579.19,835.22,577.76z"/>
	</g>
	<g>
		<path style="fill:#FFFFFF;" d="M829.5,575.65c-0.83-0.27-1.62-0.68-2.38-1.22c-4.22-3.03-6.07-9.57-6.29-13.27
			c-0.11-1.99,0.81-4.46,1.79-7.1c1.57-4.21,3.21-8.61,0.66-11.06c-0.27-0.26-0.26-0.68,0.03-0.92c0.29-0.24,0.76-0.22,1.03,0.04
			c3.14,3.02,1.27,8-0.36,12.35c-0.95,2.52-1.83,4.89-1.73,6.64c0.19,3.34,1.93,9.63,5.76,12.39c1.49,1.07,3.16,1.5,4.98,1.28
			c0.38-0.04,0.74,0.18,0.79,0.52c0.05,0.33-0.22,0.63-0.6,0.68C831.89,576.14,830.65,576.03,829.5,575.65z"/>
	</g>
</g>
<g>
	<path style="fill:#C6C7D7;" d="M528.85,516.73c16.5-1.62,29.63-3.34,32.42-20.16c1.45-8.7-1.57-15.29-10.08-21.48
		c-6.88-5-10.51-6.9-11.1-14.88c-0.94-12.76,6.8-24.09,0.75-37.18c-6.75-14.61-27.25-11.37-34.54-24.79
		c-6.54-12.03-8.95-26.75-26.14-29.05c-14.47-1.93-22.55,12.3-17.89,23.66c2.62,6.4,8.11,11.43,9.67,18.1
		c1.48,6.36-1.82,10.9-4.94,16.06c-6.88,11.4-9.95,23.73,2.82,33.78c7.63,6.01,13.44,11.15,9.13,19.7
		c-4.53,8.99-6.72,14.18,3.72,22.96c7.8,6.56,15.69,7.27,25.48,9.11c9.18,1.73,21.15,6.05,30.45,3.32L528.85,516.73z"/>
	<g>
		<path style="fill:#FFFFFF;" d="M524.96,507.22c1.57-1.32,2.7-2.78,3.39-4.36c2.95-6.8-2.75-14.87-7.91-22.18
			c-2.6-3.68-5.09-7.2-6.08-10.04c-2.72-7.73-2.91-14.31-0.65-24.24c2.69-11.78,0.19-17.12-8.39-26.41
			c-7.23-7.84-14.27-16.35-15.5-23.93c-0.09-0.59-0.77-1-1.51-0.92c-0.74,0.08-1.26,0.63-1.17,1.22c1.32,8.07,8.61,16.84,16.08,24.9
			c8.32,8.95,10.59,13.78,8.06,24.98c-1.91,8.47-2.5,15.96,0.74,25.1c1.07,3.03,3.63,6.62,6.3,10.39c5,7.02,10.52,14.78,7.88,20.87
			c-1.02,2.35-3.18,4.32-6.61,6.03c-0.56,0.29-0.82,0.83-0.54,1.22c0.27,0.39,0.96,0.47,1.53,0.18
			C522.29,509.18,523.75,508.24,524.96,507.22z"/>
	</g>
	<g>
		<path style="fill:#FFFFFF;" d="M511.59,457.62c0.19-0.16,0.33-0.35,0.37-0.57c0.1-0.53-0.36-0.97-1.03-1
			c-5.85-0.21-9.45-5.32-13.34-10.83c-3.44-4.88-7.05-10-12.71-12.08c-0.64-0.24-1.45-0.01-1.79,0.5c-0.34,0.51-0.1,1.11,0.54,1.35
			c4.96,1.81,8.41,6.67,11.69,11.29c4.03,5.68,8.12,11.44,15.23,11.69C510.95,457.97,511.32,457.83,511.59,457.62z"/>
	</g>
	<g>
		<path style="fill:#FFFFFF;" d="M514.05,472.95c0.11-0.09,0.2-0.19,0.26-0.31c0.77-1.34,1.18-2.52,1.58-3.67
			c0.64-1.85,1.2-3.45,3.18-5.3c1.05-0.98,2.19-1.79,3.28-2.59c2.3-1.68,4.68-3.39,6.09-6.49c2.01-4.43,2.76-10.2,2.22-17.2
			c-0.08-0.98-0.37-2.37-0.69-3.86c-0.45-2.14-1.31-6.14-0.72-6.92c0.36-0.47,0.24-1.08-0.29-1.35c-0.53-0.27-1.25-0.16-1.64,0.28
			c-1.17,1.31-0.68,4.09,0.27,8.48c0.31,1.43,0.6,2.79,0.67,3.66c0.37,4.65,0.31,11.24-2.06,16.45c-1.17,2.61-3.11,4-5.37,5.63
			c-1.16,0.84-2.36,1.71-3.54,2.8c-2.4,2.22-3.08,4.21-3.75,6.14c-0.37,1.07-0.75,2.18-1.44,3.38c-0.28,0.49-0.02,1.01,0.58,1.16
			C513.18,473.37,513.71,473.24,514.05,472.95z"/>
	</g>
</g>
<g>
	<path style="fill:#0B50B9;" d="M819.5,668.77c-15.65-9.14-27.68-16.75-23.98-36.25c1.87-9.87,7.13-15.63,17.39-18.76
		c8.31-2.53,12.44-3.1,15.77-11.2c5.25-12.77,1.77-27.04,11.77-37.84c11.01-11.9,29.43-1.56,40.52-12.19
		c9.85-9.45,16.38-22.73,33.66-19.22c14.78,3,19.11,19.77,11.33,29.48c-4.41,5.51-11.37,8.61-14.83,14.85
		c-3.33,5.99-1.29,11.97,0.4,18.6c3.81,14.91,3.41,29.64-12.99,35.37c-9.79,3.42-17.42,6.66-15.7,18.13
		c1.84,12.29,2.48,19.29-11.43,24.74c-10.4,4.07-18.83,1.25-29.53-1.1c-9.94-2.18-23.53-2.63-31.71-9.89L819.5,668.77z"/>
	<g>
		<path style="fill:#FFFFFF;" d="M826.85,659.72c-1.08-2.18-1.68-4.31-1.79-6.38c-0.46-8.82,8.01-15.28,15.65-21.11
			c3.84-2.92,7.49-5.71,9.44-8.37c5.27-7.2,7.62-14.12,8.65-25.44c1.18-13.17,5.3-17.68,16.54-23.92
			c9.45-5.26,18.88-11.24,22.3-18.33c0.26-0.55,1.04-0.72,1.75-0.37c0.7,0.34,1.06,1.07,0.8,1.62
			c-3.64,7.57-13.42,13.74-23.18,19.14c-10.9,6.01-14.64,10.09-15.77,22.64c-0.86,9.65-2.74,17.85-8.99,26.38
			c-2.08,2.84-5.84,5.69-9.79,8.68c-7.39,5.6-15.58,11.81-15.16,19.73c0.16,3.08,1.61,6.26,4.43,9.72c0.46,0.59,0.52,1.31,0.11,1.63
			c-0.41,0.32-1.13,0.11-1.6-0.47C828.81,663.11,827.68,661.4,826.85,659.72z"/>
	</g>
	<g>
		<path style="fill:#FFFFFF;" d="M857.21,611.03c-0.14-0.24-0.2-0.5-0.18-0.76c0.08-0.6,0.67-0.89,1.34-0.65
			c5.86,2.11,11.09-1.89,16.71-6.18c4.96-3.79,10.15-7.75,16.46-7.73c0.72,0,1.47,0.55,1.65,1.22c0.19,0.67-0.23,1.21-0.96,1.21
			c-5.55-0.03-10.5,3.73-15.23,7.32c-5.83,4.43-11.76,8.94-18.9,6.35C857.72,611.66,857.4,611.36,857.21,611.03z"/>
	</g>
	<g>
		<path style="fill:#FFFFFF;" d="M849.66,626.47c-0.08-0.14-0.13-0.29-0.16-0.44c-0.31-1.77-0.32-3.21-0.33-4.61
			c-0.01-2.25-0.02-4.19-1.35-6.95c-0.7-1.46-1.54-2.78-2.34-4.05c-1.68-2.68-3.41-5.41-3.73-9.19c-0.45-5.37,0.75-11.57,3.58-18.5
			c0.39-0.96,1.13-2.26,1.92-3.64c1.13-1.99,3.24-5.69,2.93-6.68c-0.19-0.59,0.12-1.16,0.71-1.24c0.59-0.08,1.24,0.29,1.47,0.87
			c0.7,1.73-0.67,4.34-3.01,8.42c-0.76,1.34-1.48,2.6-1.84,3.46c-1.88,4.6-4.01,11.38-3.47,17.7c0.26,3.18,1.68,5.4,3.33,8
			c0.85,1.34,1.74,2.75,2.53,4.37c1.62,3.33,1.63,5.74,1.64,8.08c0.01,1.31,0.01,2.66,0.3,4.24c0.12,0.64-0.32,1.1-0.97,1.02
			C850.39,627.28,849.91,626.92,849.66,626.47z"/>
	</g>
</g>
<g>
	<path style="fill:#110239;" d="M539.67,487.78c-17.9-2.84-31.87-5.56-35.51-25.06c-1.84-9.88,0.97-17.15,9.39-23.79
		c6.82-5.38,10.47-7.41,10.63-16.16c0.25-13.81-8.17-25.84-2.78-39.53c5.94-15.09,26.86-12.14,33.33-26.07
		c5.74-12.38,7.01-27.13,24.39-30.13c14.86-2.57,24.98,11.48,21.26,23.35c-2.11,6.74-7.46,12.15-8.43,19.22
		c-0.92,6.79,3.15,11.62,7.13,17.18c8.96,12.51,13.94,26.38,0.74,37.67c-7.88,6.74-13.81,12.53-8.05,22.59
		c6.18,10.78,9.32,17.07-1.67,27.2c-8.21,7.57-17.09,8-27.92,9.69c-10.05,1.57-22.88,6.09-33.14,2.3L539.67,487.78z"/>
	<g>
		<path style="fill:#FFFFFF;" d="M543.23,476.68c-1.8-1.64-3.13-3.41-3.98-5.29c-3.64-8.05,1.91-17.15,6.92-25.35
			c2.52-4.12,4.91-8.04,5.75-11.23c2.3-8.62,1.98-15.92-1.18-26.84c-3.68-12.7-1.48-18.39,6.72-28.3
			c6.89-8.33,13.51-17.33,14.12-25.18c0.04-0.61,0.71-1.05,1.49-0.98c0.78,0.06,1.38,0.61,1.33,1.22
			c-0.64,8.38-7.51,17.67-14.65,26.25c-7.97,9.56-9.98,14.72-6.47,26.82c2.7,9.3,3.93,17.63,1.2,27.84
			c-0.91,3.4-3.38,7.43-5.96,11.65c-4.85,7.9-10.23,16.66-6.96,23.88c1.27,2.81,3.77,5.25,7.66,7.45c0.64,0.38,0.96,1.03,0.69,1.48
			c-0.27,0.45-1.01,0.51-1.66,0.14C546.29,479.13,544.62,477.94,543.23,476.68z"/>
	</g>
	<g>
		<path style="fill:#FFFFFF;" d="M553.84,420.29c-0.22-0.18-0.37-0.4-0.44-0.64c-0.15-0.58,0.31-1.07,1.01-1.09
			c6.23-0.16,9.65-5.79,13.33-11.82c3.24-5.33,6.64-10.91,12.53-13.18c0.67-0.26,1.57-0.02,1.98,0.53c0.42,0.56,0.22,1.21-0.45,1.47
			c-5.18,1.98-8.43,7.29-11.53,12.35c-3.83,6.24-7.71,12.6-15.3,12.78C554.55,420.69,554.14,420.53,553.84,420.29z"/>
	</g>
	<g>
		<path style="fill:#FFFFFF;" d="M552.41,437.42c-0.12-0.1-0.22-0.22-0.3-0.35c-0.93-1.53-1.46-2.87-1.98-4.17
			c-0.82-2.09-1.54-3.89-3.78-5.99c-1.18-1.1-2.44-2.03-3.65-2.92c-2.54-1.89-5.14-3.8-6.81-7.21c-2.37-4.84-3.5-11.06-3.38-18.54
			c0.02-1.04,0.24-2.52,0.47-4.09c0.33-2.26,0.95-6.48,0.3-7.29c-0.39-0.49-0.31-1.12,0.21-1.41c0.52-0.29,1.26-0.18,1.68,0.28
			c1.28,1.36,0.95,4.29,0.26,8.94c-0.23,1.52-0.44,2.96-0.46,3.89c-0.08,4.97,0.4,12.06,3.2,17.75c1.4,2.87,3.52,4.43,6.01,6.25
			c1.28,0.94,2.62,1.93,3.94,3.15c2.71,2.52,3.6,4.76,4.46,6.93c0.48,1.22,0.98,2.48,1.81,3.84c0.34,0.56,0.1,1.15-0.53,1.31
			C553.39,437.91,552.81,437.75,552.41,437.42z"/>
	</g>
</g>
<g>
	<path style="fill:#C6C7D7;" d="M226.97,675.96c-22.39-0.76-42.56,3.91-54.88-18.67c-9.75-17.87,3.92-38.05-14.37-48.63
		c-11.01-6.37-27.25-8.77-32.65-21.62c-5.62-13.39,10.89-24.81,5.73-37.69c-4.26-10.64-19.68-9.13-17.79-24.09
		c1.68-13.26,12.42-18.12,21.7-16.88c12.41,1.66,15,12.41,24.02,18.82c6.02,4.28,12.75-1.89,20.36-3.96
		c7.58-2.06,17.55-2.82,24.58-0.37c22.84,7.94,9.26,33.84,15.91,52.33c6.43,17.87,30.73,2.94,46.15,14.81
		c18.02,13.86,10.31,43.54-3.18,58.99C253.57,659.28,242.1,676.48,226.97,675.96z"/>
	<g>
		<path style="fill:#FFFFFF;" d="M247.31,668.07c-0.1,0.07-0.21,0.14-0.33,0.19c-0.68,0.27-1.47-0.04-1.77-0.69
			c-0.22-0.47-21.36-45.82-60.49-71.99c-22.03-14.73-29.31-32.21-35.01-45.87c-3.32-7.97-6.15-14.76-10.85-17.96
			c-0.38-0.26-0.43-0.89-0.12-1.4c0.32-0.54,0.88-0.73,1.25-0.48c5.06,3.43,7.99,10.42,11.43,18.64
			c5.64,13.47,12.86,30.72,34.58,45.12c39.88,26.44,61.44,72.5,61.66,72.98C247.92,667.13,247.76,667.72,247.31,668.07z"/>
	</g>
	<g>
		<path style="fill:#FFFFFF;" d="M185.93,594c-0.4,0.4-1,0.48-1.4,0.15c-0.44-0.36-0.49-1.06-0.1-1.58
			c5.98-7.91,8.58-21.86,2.8-29.56c-0.68-0.91-1.46-1.87-2.28-2.87c-3.86-4.73-8.57-10.51-7.51-16.98c0.52-3.16,2.41-6.23,5.56-9.13
			c0.5-0.45,1.15-0.46,1.47-0.02c0.32,0.44,0.17,1.13-0.32,1.62c-2.73,2.49-4.24,4.91-4.66,7.47c-0.91,5.51,3.55,10.93,7.18,15.37
			c0.84,1.02,1.64,2,2.33,2.92c6.62,8.78,3.57,23.86-2.97,32.47C186,593.91,185.97,593.96,185.93,594z"/>
	</g>
	<g>
		<path style="fill:#FFFFFF;" d="M181.19,599.15c-3.29,3.15-6.7,4.88-10.19,5.17c-5.4,0.45-10.83-2.65-15.72-8.86
			c-0.48-0.6-1.01-1.33-1.59-2.11c-3.28-4.41-8.15-10.96-12.93-10.93c-1.56,0.01-2.98,0.73-4.36,2.18c-0.38,0.4-0.94,0.41-1.23,0.01
			c-0.29-0.39-0.23-1.04,0.15-1.44c0,0,0.01-0.01,0.01-0.01c1.74-1.84,3.64-2.79,5.67-2.82c5.54-0.06,10.72,6.86,14.21,11.53
			c0.58,0.77,1.11,1.48,1.58,2.07c4.55,5.74,9.48,8.6,14.27,8.18c4.18-0.37,8.32-3.23,12.27-8.54c0.4-0.54,1.06-0.65,1.51-0.3
			c0.45,0.35,0.5,1.06,0.11,1.58C183.71,596.5,182.46,597.93,181.19,599.15z"/>
	</g>
	<g>
		<path style="fill:#FFFFFF;" d="M241.61,645.5c-1.26,1.03-2.66,1.84-4.21,2.34c-0.68,0.22-1.42-0.12-1.63-0.78
			c-0.22-0.65,0.13-1.35,0.83-1.58c8.13-2.67,11.69-16.87,11.36-24.03c-0.14-2.98-1.68-6.46-3.31-10.13
			c-2.86-6.48-5.79-13.1-1.77-18.81c0.42-0.65,1.26-0.83,1.85-0.49c0.6,0.34,0.74,1.11,0.3,1.72c-3.2,4.52-0.52,10.55,2.1,16.44
			c1.73,3.88,3.37,7.57,3.53,11C250.96,627.65,248.46,639.86,241.61,645.5z"/>
	</g>
	<g>
		<path style="fill:#FFFFFF;" d="M232.46,652.4c-1.23,1.02-2.68,1.83-4.32,2.45c-8.99,3.38-21.58-0.2-27.71-3.32
			c-3.21-1.64-6.34-5.16-9.62-8.84c-5.1-5.74-10.27-11.54-15.48-9.95c-0.55,0.17-1.11-0.17-1.24-0.76c-0.13-0.59,0.22-1.2,0.76-1.38
			c6.41-1.98,12.29,4.58,17.59,10.51c3.15,3.52,6.16,6.89,9.02,8.32c5.56,2.8,17.6,6.24,25.77,3.13c3.25-1.24,5.53-3.41,6.73-6.44
			c0.26-0.63,1-0.97,1.67-0.74c0.67,0.24,1,0.95,0.74,1.6C235.5,649.16,234.19,650.97,232.46,652.4z"/>
	</g>
</g>
<polygon style="fill:#FB961E;" points="845.2,362.64 601.55,362.64 601.55,425.96 502.96,425.96 502.96,489.29 404.37,489.29 
	404.37,552.61 305.79,552.61 305.79,615.94 207.2,615.94 207.2,695.97 845.2,695.97 "/>
<g>
	<g>
		<path style="fill:#F88667;" d="M707.72,228.18c0,0,1.98,4.79,1.89,4.64c-0.09-0.15,3.02-1.48,3.21-1.43
			c0.18,0.04,2.76-0.06,3.81-0.27c1.04-0.21,1.86-0.93,2.2-1.13c0.38-0.23,1.02-0.96,0.45-1.13c-0.5-0.15-1.06,0.54-1.39,0.67
			c-0.33,0.14-1.47,0.14-1.47,0.14s0.43-0.2,1.26-0.53c1.01-0.41,2.51-1,2.81-1.3c0.29-0.29,0.22-0.91-0.56-0.76
			c-0.94,0.18-1.81,0.62-1.97,0.66c-0.16,0.04-1.65,0.59-1.65,0.59s1.28-0.49,1.74-0.7c0.51-0.23,1.92-0.79,2.81-1.19
			c0.86-0.39,0.67-1.36-0.12-1.3c-0.59,0.04-2.56,1.11-2.87,1.21c-0.31,0.1-1.67,0.73-1.67,0.73s1.64-0.74,1.91-0.93
			c0.27-0.18,2.09-0.87,2.3-1.41c0.1-0.26-0.01-0.79-0.64-0.69c-0.73,0.12-1.79,0.53-2.27,0.78c-0.39,0.2-2.98,1.44-3.55,1.46
			c-0.51,0.02-1.08-0.03-1.09-0.68l-0.88-1.63c0,0-0.59,0.29-0.91,1.77C710.88,226.56,709.53,227.59,707.72,228.18z"/>
		<g>
			<g>
				<path style="fill:#0B50B9;" d="M653.68,247.3c0.01-3.99,3.15-7.29,7.09-7.89c6.48-0.98,18.52-2.84,22.15-3.67
					c5.05-1.16,25.69-8.05,25.69-8.05l2.26,5.45c0,0-22.45,11.28-26.49,12.16c-4.04,0.88-24.77,8.24-28.79,5.92
					C654.19,250.4,653.68,248.92,653.68,247.3z"/>
			</g>
		</g>
		<path style="fill:#F88667;" d="M654.63,221.61c0.12,0.13,0.23,0.26,0.35,0.39c1.14,1.15,2.34,2.32,3.7,3.22
			c0.82,0.55,2.1,0.9,2.81,1.48c0.28,0.23,0.58,0.44,0.89,0.63c-0.41,2.31-1.43,8.38-1.27,10.75c0,0-7.38-0.52-10.07-3.51
			C651.03,234.57,654.09,226.35,654.63,221.61z"/>
		<path style="fill:#E45940;" d="M658.59,233.96c-0.51-2.1-1.69-4.16-3.36-5.56c-0.57-0.48-1.16-0.92-1.77-1.31
			c0.53-1.92,0.99-3.89,1.17-5.46c0.12,0.13,0.23,0.26,0.35,0.39c1.14,1.15,2.34,2.32,3.7,3.22c0.82,0.55,2.1,0.9,2.81,1.48
			c0.28,0.23,0.58,0.44,0.89,0.63c-0.41,2.31-1.43,8.38-1.27,10.75c0,0-1.27-0.09-2.94-0.41
			C658.71,236.54,658.9,235.24,658.59,233.96z"/>
		<path style="fill:#110239;" d="M658.72,353.35c0,0,0.2,7.36,1.35,8.37c1.15,1.01,15.79,1.45,17.05,0.1
			c1.26-1.34,0.52-3.6-2.62-4.48c-3.37-0.94-5.02-0.02-7.13-0.9c-2.11-0.88-1.55-4.21-1.55-4.21L658.72,353.35z"/>
		<path style="fill:#110239;" d="M622.4,353.1c0,0-1.13,7.17-0.02,8.22c1.11,1.05,16.03,2.22,17.34,0.93
			c1.31-1.29,0.66-3.58-2.45-4.57c-3.33-1.06-4.94-0.39-7.09-1.17c-1.69-0.62-0.55-4.03-0.55-4.03L622.4,353.1z"/>
		<g>
			<path style="fill:#C6C7D7;" d="M633.23,311.83c-0.32-20.36,2-34.37,3.06-40.93c2.44,0.09,4.88,0.31,7.31,1.41
				c4.47,2.04,8.97,3.99,13.45,5.94c-3.65,7.54-11.63,32.17-12.59,37.32c-1.2,6.41-14.59,39.1-14.59,39.1l-8.11-1.02
				C621.89,348.4,633.26,313.6,633.23,311.83z"/>
			<path style="fill:#ABADC4;" d="M649.86,275.23c2.35,1.15,4.79,2.05,7.23,2.94c-3.58,7.4-10.1,27.87-11.58,33.31
				c-1.14-3.43-6.64-11.73-8.75-20.81c-1.41-6.07-1.65-12.36-0.68-18.52c0-0.02,0.01-0.05,0.01-0.07
				C640.64,272.39,645.05,272.89,649.86,275.23z"/>
			<path style="fill:#C6C7D7;" d="M643.8,274.12c3.16,1.07,8.91,2.6,13.25,4.15c3.02,7.64,11.95,25.67,12.42,33.82
				c0.51,9-2.6,43.08-2.6,43.08h-9.28c0,0-0.86-38.42-2.16-40.88c-4.28-8.14-9.02-14.59-11.71-19.66
				c-4.51-8.49-6.05-13.95-6.84-17.93c-0.35-1.75-1.89-7.64,1.1-9.48C640.44,267.91,641.15,273.23,643.8,274.12z"/>
		</g>
		<g>
			<path style="fill:#0B50B9;" d="M660.43,280.12c0,0-7.79,3.15-15.47,2.41c-5.68-0.55-8.62-0.63-11.95-2.43
				c0,0,3.55-27.69,7.65-36.42c4.1-8.73,10.83-10.4,10.83-10.4s5.3,3.08,9.64,3.01c0,0-0.11,17.01-0.44,23.81
				C660.37,266.89,660.43,280.12,660.43,280.12z"/>
			<path style="fill:#002987;" d="M660.8,257.61c0.02-0.75,0.05-1.54,0.07-2.38c0-0.1,0.01-0.2,0.01-0.31
				c0.02-0.8,0.04-1.63,0.06-2.48c0-0.14,0.01-0.28,0.01-0.42c0.02-0.94,0.04-1.9,0.05-2.86c0-0.01,0-0.03,0-0.04
				c-0.35,0-0.71-0.01-1.05-0.07c-2.71-0.53-5.07-2.04-7.41-3.43c-0.39-0.23-0.81-0.42-1.23-0.63c-0.47,3.64,1.17,8.08,1.87,10.97
				c1.95,8,3.01,18.13,1.33,25.85c3.46-0.74,5.92-1.7,5.92-1.7s-0.06-13.23,0.27-20.02c0.03-0.6,0.06-1.3,0.08-2.05
				C660.79,257.9,660.79,257.76,660.8,257.61z"/>
		</g>
		<path style="fill:#F88667;" d="M650.8,214.72c0,0,3.15-6.58,7.35-6.32c4.19,0.27,6.89,0.95,7.45,2.57
			c0.56,1.62,1.5,6.08,2.57,7.73c1.07,1.65,3.39,3.81,3.34,4.56c-0.05,0.75-2.45,1.01-2.58,1.31c-0.13,0.3-1.43,5.74-2.31,6.3
			c-0.88,0.57-8.94-2.58-10.18-4.98C655.19,223.5,650.43,218.98,650.8,214.72z"/>
		<path style="fill:#110239;" d="M659.36,215.35c0.41,0.03,0.93,0.3,1.25,0.36c0.62,0.11,1.25,0.16,1.87,0.27
			c1.25,0.21,2.5,0.4,3.73,0c1.82-0.6,1.23-2.4,2.07-3.66c0.41-0.61,1.27-0.61,1.71-1.29c0.42-0.65,0.56-1.59,0.55-2.35
			c-0.03-1.92-1.9-2.09-3.37-2.46c-1.72-0.43-1.82-1.38-2.64-2.68c-2.04-3.22-4.91,1.25-7.17,0.97c-1.16-0.14-2.37-0.89-3.49-0.25
			c-0.97,0.55-1.55,1.52-2.2,2.38c-0.68,0.9-1.35,0.53-2.33,0.91c-0.72,0.27-1.52,0.96-2.04,1.55c-1.15,1.32-1.91,3.32-1.55,5.06
			c0.3,1.48,1.49,2.28,1.55,3.83c0.05,1.24-0.02,2.76,0.58,3.89c0.88,1.64,2.82,1.85,4.13,2.97c1.24,1.06,3,1.83,4.68,1.45
			c0.17-1.16,0.06-3.12-0.96-3.7c-0.41-0.23-0.91-0.27-1.55-0.79c-1.17-0.95-0.48-3.35,1.72-3.04c1.32,0.18,1.92,3.8,3.36,3.21
			c1.1-0.45-0.22-2.27-0.53-2.9c-0.4-0.82-0.61-2.9,0.17-3.6C659.04,215.36,659.19,215.33,659.36,215.35z"/>
		<path style="fill:#F88667;" d="M694.51,280.26c0.43-0.03,0.94-0.14,1.09-0.09c0.71,0.23,1.89-0.11,2.38-0.29
			c1.13-0.42,2.85-1.17,4.01-0.97c0.67,0.12,4.71,1.06,3.72,2.72c-0.13,0.22-0.63,0.57-0.77,0.52c-0.41-0.16-1.58-0.58-1.58-0.58
			s0.89,0.33,1.07,0.46c0.16,0.11,0.46,0.24,0.56,0.4c0.22,0.34-0.12,1.08-0.47,1.2c-0.35,0.12-0.62-0.23-0.91-0.39
			c0.01,0,0.01,0.01,0.02,0.02c0.28,0.22,0.89,0.38,0.51,1.23c-0.42,0.95-0.71,0.35-1.11,0.25c-0.14-0.03-0.29-0.1-0.43-0.17
			c0.15,0.09,0.72,0.36,0.83,0.46c0.38,0.34-0.46,1.46-1.21,1.36c-0.46-0.06-1.55-0.72-1.81-0.65c-0.29,0.08-0.63,0.08-0.93,0.1
			c-0.92,0.09-1.88-0.16-2.73-0.54c-0.38-0.17-1.13-0.47-1.5-0.67c-0.94-0.5-1.97-1.3-2.24-1.53
			C693.64,281.92,694.63,281.62,694.51,280.26z"/>
		<path style="fill:#0B50B9;" d="M693.11,285.33l3.26-6.45c0,0-16.16-10.35-22.07-16.31c-5.91-5.96-12.29-18.09-16.8-18.85
			c-4.5-0.76-9.04,1.72-6.43,7.99c2.61,6.27,15.82,14.58,18.51,17.34C672.27,271.82,690.46,283.85,693.11,285.33z"/>
	</g>
	<g>
		<path style="fill:#FB961E;" d="M684.82,161.81c1.93-0.52,8.16-2.72,11.27,8.95c2.96,11.12,5.65,26,5.65,26
			s-10.21-11.16-17.27-20.25C677.06,166.97,682.96,162.66,684.82,161.81z"/>
		<path style="fill:#110239;" d="M693.55,171.62l9.49,13.01c2.86,3.92,5.36,8.09,7.48,12.46l35.82,74.03l-43.55-62.93
			c-4.91-7.1-8.66-14.94-11.1-23.22l-2.99-10.16C690.53,174.11,692.17,173.02,693.55,171.62z"/>
		<path style="fill:#FB961E;" d="M703.48,197.9c0,0,10.42-19.79,5.34-34.28c-5.08-14.49-17.85,9.93-17.85,9.93L703.48,197.9z"/>
		<path style="fill:#FB961E;" d="M703.56,197.78c0,0-22.14-3.17-30.89-15.78c-8.75-12.62,18.51-8.63,18.51-8.63L703.56,197.78z"/>
	</g>
	<path style="fill:#F88667;" d="M712.23,228.41c0.27-0.11,3.59-0.94,3.85-1.02c0-0.01-1.46-2.78-1.46-2.8
		c0.1-0.71,2.81-0.89,3.4-1.21c1.81-0.95,1.08-2.09,0.26-1.83c-0.56,0.18-1.83,0.55-2.32,0.77c-0.52,0.23-1.36,0.12-1.88,0.21
		c-0.5,0.09-1.89,1.33-2.33,1.62c-0.35,0.23-0.88,1.68-0.89,2.46C710.86,227.92,711.62,228.66,712.23,228.41z"/>
</g>
<g>
	<g>
		<g>
			<path style="fill:#110239;" d="M731.67,614l1.11,115.55c0.06,6,1.76,9.48,10.33,10.59c10.67,1.38,13.9-0.5,15.48-3.44
				c2.97-5.51,32.08-115.94,36.88-123.45C800.29,605.74,731.67,614,731.67,614z"/>
			<path style="fill:#C6C7D7;" d="M839.72,574.22c6.07-0.02,11.4,4.1,12.75,10.02c0.8,3.48,1.41,7.93,1.46,13.44
				c0.06,6.58-0.43,10.86-2.05,14.46c-1.96,4.37-6.42,7.08-11.21,7.25c-23.46,0.85-107.93,4.16-125.54,8.3
				c-20.5,4.82-89.19,35.3-89.19,35.3l13.09-154.47c0,0,63.09,51.13,103.14,59.08C773.34,573.79,820.37,574.3,839.72,574.22z"/>
			<path style="fill:#0B50B9;" d="M796.75,621.23c-8.73,0.42-17.83,0.88-26.76,1.4c5.61-18.1,3.39-38.79,0.53-51.13
				c8.93,0.84,18.06,1.42,26.82,1.84C801.5,590.93,800.77,607.45,796.75,621.23z"/>
			
				<ellipse transform="matrix(-1 -7.875036e-003 7.875036e-003 -1 1233.6617 1167.0098)" style="fill:#E5E6ED;" cx="619.13" cy="581.08" rx="60.2" ry="101.12"/>
			
				<ellipse transform="matrix(-1 -7.857154e-003 7.857154e-003 -1 1224.6661 1166.8923)" style="fill:#110239;" cx="614.63" cy="581.04" rx="51.21" ry="86.02"/>
			<path style="fill:#FB961E;" d="M625.46,589.38c-1.21-16.92,9.86-31.51,24.74-32.57c5.09-0.36,9.91,1,14.17,3.49
				c0.97,6.78,1.51,13.84,1.46,21.15c-0.1,12.56-1.83,24.44-4.8,35.17c-2.05,0.75-4.18,1.31-6.44,1.47
				C639.72,619.15,626.68,606.3,625.46,589.38z"/>
		</g>
		<g>
			<path style="fill:#F88667;" d="M714.83,527.58c0.19-1.79,0.33-3.45-0.65-5.17c0.87,0.15,2.16,0.28,2.09-0.23
				c-0.1-0.69-0.25-1.68,0.25-1.59c0.49,0.09,0.88,0.38,1.3,0.65c0.9,0.59,1.93,0.67,3,0.73c0.35,1.18,1.36,3,0.71,4.28
				c-0.33,0.66-2.09,0.35-2.88,0.65C717.38,527.39,715.91,527.51,714.83,527.58z"/>
			<g>
				<path style="fill:#FFFFFF;" d="M739.55,473.04c0,0,7.44-0.42,17.51,4.34l-4.69,20.43c0,0-4.82-2.92-11.44-2.51L739.55,473.04z"
					/>
				<path style="fill:#C6C7D7;" d="M744.47,483.77c-0.04-3.41-0.26-6.81-0.33-10.22c-2.85-0.5-4.58-0.51-4.58-0.51l1.38,22.26
					c1.91-2.92,2.83-2.27,3.21-2.63C744.13,489.72,744.51,486.69,744.47,483.77z"/>
				<path style="fill:#FFFFFF;" d="M698.91,474.11c0,0,26.63-10.47,44.08-6.9l1.15,25.46c0,0-15.48-3.42-36.91,5.96L698.91,474.11z"
					/>
				
					<rect x="708.33" y="472.31" transform="matrix(0.9447 -0.3281 0.3281 0.9447 -126.1525 260.6474)" style="fill:#110239;" width="2.29" height="63.85"/>
			</g>
			<path style="fill:#0B50B9;" d="M719.48,527.72v-7.21c0,0,21.51,0.17,30.53-2.42c9.02-2.59,21.1-13.2,25.92-11.48
				c4.81,1.72,7.88,6.62,1.91,11.31c-5.97,4.69-20.15,8.74-26.3,9.68C747.27,528.26,722.87,527.72,719.48,527.72z"/>
			<path style="fill:#002987;" d="M755.46,523.22c7.6-3.16,14.77-10.03,20.89-16.43c4.56,1.85,7.28,6.59,1.48,11.14
				c-5.97,4.69-20.15,8.74-26.3,9.68c-2.1,0.32-9.06,0.35-16,0.3C742.4,527.23,749.17,525.84,755.46,523.22z"/>
			<path style="fill:#110239;" d="M755.65,611.23c0,0,4.2,6.79,3.59,8.4c-0.62,1.61-15.23,10.09-17.19,9.42
				c-1.97-0.68-2.35-3,0.27-5.33c2.35-2.1,4.65-2.69,6.22-4.74c1.38-1.8,0.01-6.38,0.01-6.38L755.65,611.23z"/>
			<path style="fill:#110239;" d="M780.2,553.67c0,0-2.93,2.4-6.01,1.99c-3.09-0.4-33.18,2.72-36.26,5.27
				c-3.09,2.55,9.54,53.46,9.54,53.46l10.46-1.74c0,0-3.75-37.22-3.12-37.49c0.63-0.27,16.43-0.21,43.37-0.21
				c6.57,0,13.91-13.82,5.59-23.48L780.2,553.67z"/>
			<path style="fill:#F88667;" d="M775.52,496.97c1.05-0.44,1.95-1.08,2.82-1.77c0.41,3.09,1.58,8.8,4.73,11.78
				c0,0-6.53,2.7-11.88,1.51c0,0,0.63-7.26-0.48-10.82C772.34,497.77,773.98,497.61,775.52,496.97z"/>
			<path style="fill:#E45940;" d="M778.71,505.81c-1.02-3.21-4.25-5.2-7.5-5.23c-0.1-1.07-0.26-2.09-0.51-2.91
				c1.64,0.1,3.28-0.05,4.81-0.7c1.05-0.44,1.95-1.08,2.82-1.77c0.41,3.09,1.58,8.8,4.73,11.78c0,0-1.6,0.66-3.87,1.18
				C779.15,507.39,778.97,506.62,778.71,505.81z"/>
			<path style="fill:#F88667;" d="M777.38,479.33c0,0-7.71-2.42-10.15-0.9c-2.44,1.52-4.34,6.31-3.91,9.11
				c0.42,2.8-2.79,6.05-2.88,7.06c-0.07,0.81,2.44,1.4,2.52,1.71c0.08,0.31,0.23,5.41,3.61,6.28c4.76,1.21,11.12-2.61,13.3-5.49
				C782.05,494.22,784.63,481.06,777.38,479.33z"/>
			<path style="fill:#110239;" d="M763.02,479.66c0.41-0.41,1.45-1.07,1.71-1.59c0.21-0.44,0.31-0.94,0.58-1.33
				c0.86-1.25,1.06-2.17,4.59-3.27c3.06-0.96,6.97,0.15,9.41,2.09c0.9,0.72,1.68,1.59,2.24,2.59c0.17,0.3,0.7,1.13,0.57,1.45
				c-0.16,0.4-1.3,0.67-1.66,0.88c-0.64,0.37-1.16,0.94-1.74,1.41c-3.52,2.86-9.02,5.92-12.9,1.95c-0.51-0.52-1.02-1.08-1.45-1.67
				c-0.71,1.57-1.23,3.39-1.07,5.12c0,0-1.26-0.95-1.57-2.48C761.2,482.22,762.04,480.64,763.02,479.66z"/>
			<path style="fill:#110239;" d="M779.33,479.42c0.93-0.5,2.69-0.34,3.66-0.13c2.02,0.44,3.12,1.92,3.48,3.89
				c0.22,1.19,0.38,2.41,0.36,3.62c-0.03,2.14-0.14,3.48-0.9,5.48c-0.72,1.88-1.71,3.75-3.22,5.12c-1.37,1.24-4.05,2.66-5.38,2.13
				c-0.52-0.21-1.27-3.93-1.13-4.9c0.13-0.93,0.59-0.94,1.32-1.36c1.23-0.7,2.61-2.07,1.71-3.56c-1.28-2.12-3.66-1.15-4.52,1.79
				c0,0-0.93,1.65-1.46,1.39C772.7,492.61,770.33,484.28,779.33,479.42z"/>
			<path style="fill:#E45940;" d="M778.35,490.01c0,0-1.3-0.55-2.29,0.6c-0.92,1.07-0.49,2.8,0.42,2.16
				c0.91-0.65,0.55-1.21,0.7-1.75C777.35,490.48,778,490.06,778.35,490.01z"/>
			<path style="fill:#0B50B9;" d="M807.48,550.85c0,0-10.9,8.45-33.49,4.69c0,0,0.06-6.49-1.84-12.83
				c-1.9-6.34-4.74-18.71-4.82-25.24c-0.09-7.37,3.95-10.69,3.95-10.69s4.24,3.98,10.57-1.2c0,0,11.98,2.84,17.59,16.46
				C805.05,535.66,807.48,550.85,807.48,550.85z"/>
			<path style="fill:#002987;" d="M780.28,516.2c5.83,6.3,0.19,21.81-7.18,30.46c-0.24-1.29-0.53-2.61-0.93-3.96
				c-1-3.34-2.25-8.35-3.23-13.3c1.97-1.22,3.66-3.05,4.72-5.62C775.91,518.3,777.38,514.58,780.28,516.2z"/>
			<path style="fill:#F88667;" d="M733.01,559.55c-0.86,0.66-1.69,1.27-2.75,1.42c-0.5,0.07-0.97,0.11-1.4,0.36
				c-0.44,0.26-1.04,0.4-1.56,0.56c-0.49,0.15-1.11,0.27-1.48,0.71c-0.45,0.52,0.41,0.69,1,0.71c0.64,0.03,2.33-1.07,2.83-0.61
				c0.5,0.46-1.63,1.67-2.06,1.9c-1.01,0.55-1.76,0.11-2.8,0.13c-0.61,0.01-0.89,0.2-0.47,0.76c0.31,0.42,0.93,0.44,1.41,0.47
				c0.98,0.07,2.1-0.06,3-0.49c-0.67,0.42-1.97,0.69-2.75,0.75c-0.54,0.04-2.89-0.19-2.89,0.67c-0.02,1.72,5.18,0.62,5.94,0.03
				c-0.83,0.52-1.78,0.71-2.72,0.93c-0.55,0.13-1.88,0.37-1.15,1.09c1.08,1.06,3.63-0.69,4.92-1.27c-0.7,0.65-1.44,0.92-2.35,1.4
				c-1.07,0.57-0.28,1.16,0.92,0.77c0.5-0.16,1.45-0.66,1.66-0.77c2.15-1.19,2.95-2.29,4.1-4.35c0.41-0.74,1.95-1.66,1.8-2.38
				C735.92,560.93,734.02,560.21,733.01,559.55z"/>
			<path style="fill:#0B50B9;" d="M731.42,558.5l4.37,5.93c0,0,28.01-12.13,30.52-15.33c2.52-3.21,10.75-14.94,12.04-18.06
				c2.99-7.25,6.69-15.89,0-17.41c-3.65-0.83-6,0.09-8.27,5.47c-3.08,7.31-9.64,18.89-12.31,22.4
				C756.74,542.87,731.42,558.5,731.42,558.5z"/>
			<path style="fill:#F88667;" d="M711.71,522.53c-0.4,0.63,0.69,3.33,1.73,4.47c0.82,0.89,1.78,0.63,2.59,0.19
				c0.87-0.53,1.92-0.72,2.05-1.23c0.19-2.01-1.68-0.5-2.51-0.2c0,0,2.25-1.12,2.22-2.09c-0.09-1.82-2.86,0.28-3.64,0.63
				c0.79-0.22,2.04-1.09,2.14-1.43c0.53-0.4,0.2-0.95,0.08-1.06c-0.6-0.56-2.96,1.13-2.96,1.13c0.42-0.3,2.15-0.92,1.45-1.72
				c-0.46-0.53-1.15-0.09-1.57,0.04C712.5,521.5,711.84,522.09,711.71,522.53z"/>
			<path style="fill:#F88667;" d="M717.02,522.45c-0.26-0.11-0.51-0.16-0.77-0.24c0-0.01,0.02-0.02,0.02-0.03
				c-0.1-0.69-2.72-0.87-3.3-1.17c-1.76-0.92-1.05-2.02-0.25-1.77c0.54,0.17,1.78,0.54,2.25,0.75c0.5,0.22,1.32,0.12,1.82,0.21
				c0.49,0.09,1.84,1.29,2.26,1.57C719.95,522.35,717.97,522.84,717.02,522.45z"/>
		</g>
		
			<ellipse transform="matrix(-0.9386 -0.3449 0.3449 -0.9386 846.2833 1246.045)" style="fill:#FFFFFF;" cx="533.97" cy="547.75" rx="13.55" ry="3.04"/>
		
			<ellipse transform="matrix(-0.9176 -0.3975 0.3975 -0.9176 842.4695 1208.3093)" style="fill:#FFFFFF;" cx="546.47" cy="516.84" rx="13.55" ry="3.04"/>
		
			<ellipse transform="matrix(-0.9552 0.2961 -0.2961 -0.9552 1235.5364 1059.8807)" style="fill:#FFFFFF;" cx="537.52" cy="623.49" rx="13.55" ry="3.04"/>
		
			<ellipse transform="matrix(-0.9277 0.3734 -0.3734 -0.9277 1305.6869 1060.3967)" style="fill:#FFFFFF;" cx="550.14" cy="656.66" rx="13.55" ry="3.04"/>
		
			<ellipse transform="matrix(-0.9987 0.0519 -0.0519 -0.9987 1091.4304 1141.6261)" style="fill:#FFFFFF;" cx="530.9" cy="584.98" rx="13.55" ry="3.04"/>
	</g>
	<g>
		<polygon style="fill:#110239;" points="828.02,626.04 826.76,622.86 773.98,622.68 775.17,625.9 		"/>
		<polygon style="fill:#110239;" points="834.76,643.01 833.48,639.78 780.35,639.85 781.57,643.12 		"/>
		<polygon style="fill:#110239;" points="819.68,609.15 818.43,606 765.66,605.57 766.84,608.77 		"/>
		<polygon style="fill:#110239;" points="841.6,660.26 840.3,656.98 786.83,657.31 788.07,660.64 		"/>
		<polygon style="fill:#110239;" points="848.57,677.8 847.24,674.46 793.42,675.06 794.68,678.45 		"/>
		<polygon style="fill:#110239;" points="855.65,695.64 854.3,692.25 800.13,693.12 801.41,696.57 		"/>
		<polygon style="fill:#110239;" points="862.85,713.78 861.48,710.33 806.95,711.49 808.25,715 		"/>
		<path style="fill:#110239;" d="M815.76,741.81l0.28-0.01c1.69-0.05,2.85-1.63,2.3-3.12l-51.2-137.53
			c-0.34-0.92-1.3-1.54-2.38-1.55l-0.05,0c-1.68-0.02-2.85,1.42-2.32,2.85l50.95,137.8C813.68,741.21,814.67,741.84,815.76,741.81z"
			/>
		<path style="fill:#110239;" d="M869.4,741.81l0.28-0.01c1.69-0.05,2.85-1.63,2.3-3.12l-51.2-137.53c-0.34-0.92-1.3-1.54-2.38-1.55
			l-0.05,0c-1.68-0.02-2.85,1.42-2.32,2.85l50.95,137.8C867.33,741.21,868.31,741.84,869.4,741.81z"/>
	</g>
</g>
<g>
	<path style="fill:#0B50B9;" d="M434.7,431.74c0,0-5.57,20.07-8.3,23.36c-2.74,3.28-11.68,8.12-11.68,8.12l2.37,4.2
		c0,0,16.25-8.28,19.07-15.05c1.64-3.94,2.73-7.35,3.28-10.4c0.45-2.48,2.28-8.66,1.37-11.13
		C440.22,429.22,435.98,428.36,434.7,431.74z"/>
	<path style="opacity:0.65;fill:#00A1CC;" d="M434.7,431.74c0,0-5.57,20.07-8.3,23.36c-2.74,3.28-11.68,8.12-11.68,8.12l2.37,4.2
		c0,0,16.25-8.28,19.07-15.05c1.64-3.94,2.73-7.35,3.28-10.4c0.45-2.48,2.28-8.66,1.37-11.13
		C440.22,429.22,435.98,428.36,434.7,431.74z"/>
	<path style="fill:#110239;" d="M378.94,527.54l-4.1-3.83c0,0-16.4-1.21-17.36,0.23c-0.96,1.44,15.55,9.23,17.67,9.09
		C377.27,532.89,378.66,529.13,378.94,527.54z"/>
	<path style="fill:#F88667;" d="M409.01,472.06c0,0-15.51-3.95-16.79-1.39c-1.28,2.55-17.38,53.05-17.38,53.05l4.1,3.83
		c0,0,17.27-42.62,22.27-47.07C406.21,476.02,411.32,473.82,409.01,472.06z"/>
	<path style="fill:#E45940;" d="M409.01,472.06c0,0-15.51-3.95-16.79-1.39c-1.28,2.55-17.38,53.05-17.38,53.05l4.1,3.83
		c0,0,17.27-42.62,22.27-47.07C406.21,476.02,411.32,473.82,409.01,472.06z"/>
	<g>
		<path style="fill:#F88667;" d="M417,462.76c-1.18-0.32-2.15-0.7-3.22-1.29c-0.86-0.47-1.7-0.92-2.74-0.77
			c-0.74,0.11-6.7,2.59-5.11,3.7c0.51,0.36,1.8-0.27,2.31-0.45c0.73-0.26,1.47-0.62,2.17-0.93c-0.64-0.03-3.86,1.33-3.53,2.09
			c0.59,1.32,3.86-0.45,4.62-0.87c-0.58,0.09-2.6,0.85-2.6,1.58c0,1.16,2.4,0.19,2.92-0.07c0.38-0.2,0.67-0.48,1.09-0.53
			c0.5-0.07,0.99,0.16,1.46,0.26c0.82,0.17,1.7,0.13,2.54,0.05c0.5-0.05,1.65,0.06,1.9-0.37c0.26-0.45,0.06-1.48-0.32-1.81
			C418.1,462.97,417.53,462.9,417,462.76z"/>
		<path style="fill:#E45940;" d="M417,462.76c-1.18-0.32-2.15-0.7-3.22-1.29c-0.86-0.47-1.7-0.92-2.74-0.77
			c-0.74,0.11-6.7,2.59-5.11,3.7c0.51,0.36,1.8-0.27,2.31-0.45c0.73-0.26,1.47-0.62,2.17-0.93c-0.64-0.03-3.86,1.33-3.53,2.09
			c0.59,1.32,3.86-0.45,4.62-0.87c-0.58,0.09-2.6,0.85-2.6,1.58c0,1.16,2.4,0.19,2.92-0.07c0.38-0.2,0.67-0.48,1.09-0.53
			c0.5-0.07,0.99,0.16,1.46,0.26c0.82,0.17,1.7,0.13,2.54,0.05c0.5-0.05,1.65,0.06,1.9-0.37c0.26-0.45,0.06-1.48-0.32-1.81
			C418.1,462.97,417.53,462.9,417,462.76z"/>
	</g>
	<g>
		<polygon style="fill:#110239;" points="390.14,435.95 386.49,437.45 399.02,467.69 402.71,465.69 		"/>
		<rect x="401.37" y="465.17" style="fill:#110239;" width="23.86" height="3.71"/>
	</g>
	<path style="fill:#110239;" d="M467.42,447.93c-3.19-1.83-3.72-3.84-1.96-10.52c1.77-6.68-2.86-13.6-7.31-15.43
		c-3.27-1.35-6.14-1.94-8.13-5.42c-1.99-3.48,1.78-10.91-4.52-16.42c-4.59-4.01-11.17-0.81-11.17-0.81c-1.42-0.78-2,7.47-2.1,13.68
		c7.97,12.2,5.7,28.14,2.8,41.8c-0.07,0.33-0.18,0.62-0.29,0.92c0.63,10.57,1.13,19.32,1.13,19.32s19.16,10.85,32.2,1.56
		C481.11,467.33,473.82,451.59,467.42,447.93z"/>
	<path style="fill:#110239;" d="M411.08,525.04l-4.87,2.8c0,0-5.96,15.33-4.87,16.67c1.09,1.34,13.38-12.16,13.87-14.23
		C415.7,528.2,412.5,525.77,411.08,525.04z"/>
	<path style="fill:#F88667;" d="M417.28,471.15c0,0-31.26,2.19-34.18,4.99c-2.92,2.8,23.62,51.41,23.62,51.41l4.36-2.51
		c0,0-6.57-23.11-8.27-28.46c-1.7-5.35-4.99-11.8-4.38-12.65c0.61-0.85,32.11,3.89,31.87-4.99
		C430.05,470.06,417.28,471.15,417.28,471.15z"/>
	<path style="fill:#F88667;" d="M432.7,418.42c0,0,3.28,8.94,1.28,15.6l10.95-2.65c0,0-4.48-14.96-6.4-17.52
		C436.61,411.3,432.7,418.42,432.7,418.42z"/>
	<path style="fill:#E45940;" d="M437.26,426.45c3.59,0,5.44,2.65,5.61,5.42l2.05-0.5c0,0-4.48-14.96-6.4-17.52
		c-1.92-2.56-5.83,4.56-5.83,4.56s1.47,4.02,1.84,8.68C435.3,426.7,436.2,426.45,437.26,426.45z"/>
	<path style="fill:#F88667;" d="M431.56,406.77c0,0-4.25,2.03-5.27,3.75c-1.02,1.71-0.13,4.08-0.21,5.65
		c-0.08,1.57-0.52,3.89-0.28,4.27c0.24,0.38,1.8,0,2.06,0.34c0.25,0.34,2.29,1.61,2.92,3.05c0.63,1.44,1.48,1.57,2.96,0.85
		c1.48-0.72,7.15-8.21,7.22-11.72C441.02,409.43,435.78,405.33,431.56,406.77z"/>
	<path style="fill:#110239;" d="M435.17,402c0,0-1.98,3.97-2.19,5.54c-0.21,1.57,1.3,6.23,2.19,6.84c0.89,0.62,0.14-5.2,2.4-3.42
		c2.26,1.78-0.14,5.13,0,5.82c0.14,0.68,1.16,2.87,3.49,3.08c2.33,0.21,6.16-11.36,3.63-14.23C442.15,402.75,437.84,402,435.17,402z
		"/>
	<path style="fill:#110239;" d="M435.55,399.67c0,0-3.74-2.81-7.64,0.34c-3.9,3.15-3.76,7.87-6.98,7.46c0,0,2.12,5.47,6.78,4.17
		C432.36,410.35,437.17,402.96,435.55,399.67z"/>
	<path style="fill:#110239;" d="M448.3,461.54l-14.5-1.09c0,0-7.55,8.43-15,8.43c-7.36,0-25.48,0-25.48,0s1.38,11.63,7.51,20.04
		c0,0,24.21,0.76,36.01-0.21S459.85,474.72,448.3,461.54z"/>
	<path style="fill:#E25B00;" d="M400.04,470.58c3.69-0.36,7.28-1.24,10.92-1.7h-15.99C396.55,469.68,397.33,470.84,400.04,470.58z"
		/>
	<path style="fill:#0B50B9;" d="M443.53,426.32c0,0-6.66,2.62-8.91,2.86c0,0-4.69,10.34-6.51,13.14c-1.82,2.8,4.63,13.5,4.99,18.13
		c0,0,3.88,3.7,15.62,1.42C448.72,461.87,451.78,432.83,443.53,426.32z"/>
	<path style="opacity:0.65;fill:#00A1CC;" d="M445.31,432.5c-2.04-0.93-5.58,0.02-6.57,2.06c-1.23,2.53,0.03,7.02-0.12,9.75
		c-0.16,2.87-0.34,6.7-1.06,9.5c-0.57,2.18-1.99,4.89-3.83,7.09c1.51,0.91,5.87,2.74,14.98,0.97c0,0,1.87-17.71-1.24-28.57
		C446.63,433.01,445.84,432.74,445.31,432.5z"/>
	<path style="fill:#F88667;" d="M419.29,462.76c-1.18-0.32-2.15-0.7-3.22-1.29c-0.86-0.47-1.7-0.92-2.74-0.77
		c-0.74,0.11-6.7,2.59-5.11,3.7c0.51,0.36,1.8-0.27,2.31-0.45c0.73-0.26,1.47-0.62,2.17-0.93c-0.64-0.03-3.86,1.33-3.53,2.09
		c0.59,1.32,3.86-0.45,4.62-0.87c-0.58,0.09-2.6,0.85-2.6,1.58c0,1.16,2.4,0.19,2.92-0.07c0.38-0.2,0.67-0.48,1.09-0.53
		c0.5-0.07,0.99,0.16,1.46,0.26c0.82,0.17,1.7,0.13,2.54,0.05c0.5-0.05,1.65,0.06,1.9-0.37c0.26-0.45,0.06-1.48-0.32-1.81
		C420.38,462.97,419.82,462.9,419.29,462.76z"/>
	<path style="fill:#0B50B9;" d="M418.28,462.61l1.28,4.8c0,0,31.38-3.65,32.11-9.21c0.73-5.57-1.28-31.47-8.85-28.78
		c-7.57,2.69-0.09,21.48-1.28,22.94C440.36,453.82,418.28,462.61,418.28,462.61z"/>
</g>
<g>
	<path style="fill:#0B50B9;" d="M794.55,289.38c0,0-9.23,2.31-16.15,7.43c-6.92,5.13-14.1,21.02-15.51,32.16
		c-1.41,11.15-4.23,19.86,0,25.57c4.23,5.7,17.94,6.86,29.73,8.01c11.79,1.15,28.06-1.67,31.33-5.77c3.27-4.1,3.01-35.14-3.14-46.85
		C814.67,298.22,803.52,289.12,794.55,289.38z"/>
	<path style="fill:#002987;" d="M810.26,356.16c-2.37-0.79-4.81-1.65-6.76-3.26c-4.2-3.46-6.76-4.48-11.98-4.43
		c-4.78,0.05-9.4,0.03-13.5-2.68c-3.66-2.42-5.7-7.81-4.82-12.05c0.64-3.09,1.57-5.55,3.47-8.08c2.69-3.57,3.2-6.13,2.25-10.59
		c-1.14-5.33-1.31-9.89,0.25-15.17c0.81-2.73,2.71-4.71,4.86-6.5c-1.9,0.96-3.84,2.09-5.63,3.41c-6.92,5.13-14.1,21.02-15.51,32.16
		c-1.41,11.15-4.23,19.86,0,25.57c4.23,5.7,17.94,6.86,29.73,8.01c11.79,1.15,28.06-1.67,31.33-5.77c0.63-0.8,1.13-2.61,1.49-5.1
		C821.35,355.73,816.04,358.08,810.26,356.16z"/>
	<path style="fill:#0B50B9;" d="M793.27,291.69c0,0-9.9-2.4-11.24-9.9c-1.35-7.5,2.59-10.09,5.62-8.36c3.03,1.73,3.51,0.8,5.62-0.51
		c2.11-1.31,5.19,0.8,6.73,3.01c1.54,2.21,1.83-0.38,5.48-0.67c3.65-0.29,4.9,3.08,2.98,7.5
		C806.53,287.17,804.7,291.88,793.27,291.69z"/>
	<g>
		<g>
			<g>
				<path style="fill:#002987;" d="M804,287.47c-2.56,0.66-1.05-2.65-1.46-3.8c-0.67,0.03-0.92,1.15-1.14,1.63
					c-0.48,1.04-1.57,1.74-2.73,1.73c-1.6-0.02-1.82-1.76-2.5-2.84c-0.29-0.45-0.42-0.43-0.6,0.11c-0.2,0.6-0.01,1.29-0.56,1.76
					c-1.02,0.86-2.73-0.12-3.52-0.81c-0.87-0.75-1.23-1.99-2.15-2.72c-0.17,0.18-0.24,0.41-0.29,0.64
					c-0.23,1.08-0.16,3.13-1.92,2.75c-1.49-0.32-2.49-2.75-2.97-3.99c-0.55-1.43-1.07-3.13-1.07-4.67c0-0.67,0.04-1.32,0.13-1.97
					c0.05-0.38,0.18-1.2,0.37-1.51l-0.01-0.01c-1.43,1.25-2.29,3.89-1.55,8.02c1.14,6.38,8.48,9.07,10.64,9.73
					c0.38,0.12,0.77,0.17,1.17,0.18c9.01,0.02,11.81-3.12,13.58-6.65c-0.01,0-0.01,0.01-0.02,0.02
					C807.4,285.06,804.91,287.23,804,287.47z"/>
			</g>
		</g>
	</g>
	<g>
		<g>
			<path style="fill:#FFFFFF;" d="M797.44,313.96c4.85,0.48,9.24,2.66,9.15,7.52l-8.1-0.14c-0.01-1.84-1.89-2.27-3.07-2.29
				c-0.74-0.01-3.15-0.06-3.18,1.43c-0.06,3.33,14.93,0.13,14.77,9.55c-0.1,5.65-4.56,7.67-10,7.97l0.24,6.01l-4.95-0.09l0.41-6.04
				c-5.03-0.61-9.67-3.06-9.58-8.14l8.1,0.14l0,0.17c0,2.23,2.49,2.72,3.76,2.74c1.23,0.02,3.64-0.02,3.66-1.64
				c0.06-3.46-14.93-0.57-14.77-9.68c0.09-5.25,4.2-7.2,9.25-7.55l-0.2-6.05l4.95,0.09L797.44,313.96z"/>
		</g>
	</g>
	<path style="fill:#110239;" d="M786.06,288.12l-0.89,4.72c0,0,2.53,2.43,9.42,2.43s10.6-2.43,10.6-2.43l-0.45-4.26
		C804.74,288.58,795.31,290.97,786.06,288.12z"/>
</g>
<polygon style="fill:#FFF9FD;" points="873.81,168.45 867.4,168.45 867.4,162.04 863.79,162.04 863.79,168.45 857.38,168.45 
	857.38,172.05 863.79,172.05 863.79,178.46 867.4,178.46 867.4,172.05 873.81,172.05 "/>
<polygon style="fill:#FFF9FD;" points="622.84,232.94 616.43,232.94 616.43,226.53 612.82,226.53 612.82,232.94 606.41,232.94 
	606.41,236.54 612.82,236.54 612.82,242.95 616.43,242.95 616.43,236.54 622.84,236.54 "/>
<polygon style="fill:#FFF9FD;" points="919.19,280.3 912.78,280.3 912.78,273.89 909.18,273.89 909.18,280.3 902.77,280.3 
	902.77,283.9 909.18,283.9 909.18,290.31 912.78,290.31 912.78,283.9 919.19,283.9 "/>
<polygon style="fill:#FFF9FD;" points="937.97,453.57 931.56,453.57 931.56,447.16 927.96,447.16 927.96,453.57 921.55,453.57 
	921.55,457.18 927.96,457.18 927.96,463.59 931.56,463.59 931.56,457.18 937.97,457.18 "/>
<polygon style="fill:#FFF9FD;" points="286.41,403.38 280,403.38 280,396.97 276.4,396.97 276.4,403.38 269.99,403.38 
	269.99,406.99 276.4,406.99 276.4,413.4 280,413.4 280,406.99 286.41,406.99 "/>
<g>
	<path style="fill:#FFFFFF;" d="M375.95,606.29c26.9,12.84,20.53,10.74,24.89,11.9c4.36,1.16,30.11,2.78,30.11,2.78l2.84,11.05
		c0,0-31.36-1.72-35.64-2.7c-4.28-0.98-22.27-7.81-22.27-7.81L375.95,606.29z"/>
	<path style="fill:#E5E6ED;" d="M419.27,621.67c-0.79,1.36-2.2,2.34-4.22,2.28c-4.33-0.13-8.58-0.25-12.71-0.86
		c-2.4-0.19-4.82-0.64-7.22-1.37c-4.19-1.27-8.42-2.7-12.38-4.58c-2.11-1-4.57-1.44-6.82-2.21l-0.02,6.58c0,0,17.99,6.83,22.27,7.81
		c4.28,0.98,35.63,2.7,35.63,2.7l-2.81-10.94C427.16,621.46,423.21,621.65,419.27,621.67z"/>
	<path style="fill:#110239;" d="M372.26,736.48c0,0-1.14,3.33-1.15,5.9c-0.01,2.57,0.18,5.31,0.96,5.95
		c1.58,1.29,21.54,1.46,23.16-0.38c1.62-1.84,0.54-4.83-3.69-5.86c-4.53-1.11-5.17-0.63-8.02-1.72c-2.85-1.08-2.16-4.29-2.16-4.29
		L372.26,736.48z"/>
	<path style="fill:#110239;" d="M328.48,732.73c0,0-2.25,2.7-3.18,5.1c-0.93,2.4-1.73,5.02-1.22,5.91c1.01,1.77,19.6,9.04,21.78,7.9
		c2.17-1.14,2.23-4.32-1.36-6.79c-3.84-2.65-4.6-2.43-6.88-4.46c-2.28-2.03-0.49-4.78-0.49-4.78L328.48,732.73z"/>
	<path style="fill:#110239;" d="M372.13,651.65l-26.89,2.99c0,0,24.05,38.45,25.87,44.62c1.82,6.18-0.67,39.74-0.67,39.74h12.18
		c0,0,2.61-39.64,2.02-42.63C384.04,693.39,372.13,651.65,372.13,651.65z"/>
	<path style="fill:#110239;" d="M371.11,653.64h-30.7c0,0-3.59,9.41-1.94,16.58c1.64,7.17,2.74,22.41,2.59,25.1
		c-0.15,2.69-15.14,38.55-15.14,38.55l11.18,4.16c0,0,15.42-34.19,16.91-38.07C355.5,696.08,371.11,653.64,371.11,653.64z"/>
	<path style="fill:#F88667;" d="M369.81,590.13c-2.51,0.17-5.09-0.09-7.41-0.59c-0.85-0.18-1.71-0.49-2.52-0.88
		c-0.26,3.09-1.13,10.28-3.68,12.99c0,0,0.35,3.64,6.72,4.53c6.37,0.9,7.69-3.83,7.69-3.83S369.38,594.67,369.81,590.13z"/>
	<path style="fill:#E45940;" d="M356.22,601.76c0.01,0.06,0.03,0.15,0.07,0.26c0,0.01,0.01,0.02,0.01,0.03
		c0.04,0.11,0.08,0.25,0.15,0.4c0,0.01,0,0.01,0.01,0.02c0.07,0.15,0.16,0.32,0.27,0.49c0.01,0.02,0.03,0.05,0.05,0.07
		c0.24,0.36,0.57,0.76,1.03,1.15c0.03,0.02,0.05,0.04,0.08,0.07c0.23,0.19,0.5,0.38,0.81,0.56c0.04,0.02,0.08,0.05,0.12,0.07
		c0.32,0.18,0.67,0.36,1.07,0.52c0.4-1.6,1.21-3.1,2.44-4.3c2.18-2.13,4.84-3.18,7.71-3.28c-0.25-2.46-0.44-5.46-0.23-7.69
		c-2.51,0.17-5.09-0.09-7.41-0.59c-0.85-0.18-1.71-0.49-2.52-0.88c-0.26,3.09-1.13,10.28-3.68,12.99c0,0,0.01,0.04,0.01,0.08
		C356.21,601.74,356.21,601.75,356.22,601.76z"/>
	<path style="fill:#F88667;" d="M359.46,571.78c0,0,10.68-2.63,12.24,0c1.56,2.63,1.07,6.74,1.68,8.58
		c0.62,1.85,3.14,3.88,3.39,4.62c0.25,0.74-1.85,2.03-2.16,2.59c-0.31,0.55-1.64,6.47-3.53,7.7c-1.89,1.23-11.54-2.71-13.76-7.46
		C355.11,583.07,356.57,573.17,359.46,571.78z"/>
	<path style="fill:#FFFFFF;" d="M370.61,601.27c0,0-7.5,3.72-13.58-0.75c0,0-11.59,2.03-13.01,2.6c-1.18,0.48,1.92,16.98,0.57,25.27
		c-1.34,8.29-6.72,28.39-6.72,28.39s14.19,10.91,38.55,4.03c0,0,0.79-28.18,0.53-36.01c-0.38-11.45-0.46-18.23-0.46-18.23
		S373.71,603.72,370.61,601.27z"/>
	<path style="fill:#E5E6ED;" d="M352.88,646.87c-1.06-4.35-1.8-8.61-1.04-13.11c0.83-4.88-2.67-11.31-3.33-16.27
		c-0.7-5.31-1.25-8.92-4.73-11.85c0.24,5.01,1.86,16.33,0.81,22.76c-1.34,8.29-6.72,28.39-6.72,28.39s9.01,6.88,24.96,6.24
		C356.54,659.22,354.64,654.1,352.88,646.87z"/>
	<path style="fill:#110239;" d="M364.05,573.28c0,0,0.2,2.6-1.36,5.39c-0.69,1.23,2.31,4.73,1.36,6.21
		c-0.63,0.99-1.47,0.69-2.15-1.35c-0.23-0.7-0.97-1.21-1.64-1.53c-2.53-1.23-3.31,2.67-1.05,3.94c1.58,0.89,0.43,4.95,0.43,4.95
		c-1.8,1.26-7.47-0.62-6.65-4.78c0.52-2.65,0.75-3.66-0.16-4.35c-1.64-1.26-3.69-4.62-0.78-7.27c4.01-3.64,0.57-5.02,5.06-5.91
		C361.61,567.67,365.15,570.55,364.05,573.28z"/>
	<path style="fill:#110239;" d="M356.3,570.68c0.29-0.96,2.1-2.13,3-2.73c1.38-0.94,2.96-1.5,4.64-1.84
		c1.66-0.34,3.43-0.33,5.07,0.06c1.43,0.34,2.61,1.04,4.07,1.27c1.35,0.22,2.71,0.22,3.71-0.54c0.26,0.92,0.17,2.73,0.03,3.34
		c-0.3,1.3-1.22,2.44-2.06,3.58c-2.28,3.09-8.18,4.59-12.2,2.72c-1.94-0.91-3.69-1.69-4.58-3.46
		C357.45,572.05,357.05,571.56,356.3,570.68z"/>
	<g>
		<g>
			<path style="fill:#FFFFFF;" d="M329.17,720.94c-0.86,0.25-1.77,0.41-2.76,0.45c-0.4,0.02-0.8,0.04-1.19,0.07
				c-1.65,0.1-3.21,0.2-4.92-0.43c-3.19-1.17-4.81-3.23-5.59-7.12c-0.69-3.44,0.21-7.03,2.52-10.13c1.06-1.41,2.18-2.2,3.49-3.12
				l0.4-0.28c1.71-1.22,2.54-3.27,3.34-5.25l0.13-0.33c0.33-0.83,0.6-1.63,0.88-2.48c0.19-0.58,0.39-1.17,0.6-1.76
				c2.9-7.94,11.33-11.24,17.9-12.6l0.27,1.28c-6.23,1.3-14.24,4.39-16.93,11.77c-0.21,0.58-0.4,1.15-0.59,1.73
				c-0.27,0.83-0.56,1.69-0.91,2.56l-0.13,0.33c-0.83,2.05-1.77,4.38-3.8,5.82l-0.4,0.28c-1.26,0.89-2.26,1.59-3.19,2.83
				c-2.09,2.79-2.9,6.02-2.29,9.08c0.7,3.47,1.99,5.14,4.76,6.15c1.44,0.53,2.81,0.44,4.38,0.35c0.4-0.03,0.81-0.05,1.22-0.07
				c2.78-0.1,4.91-1.35,7.16-2.67c1.31-0.77,2.67-1.57,4.2-2.15c3.29-1.26,5.62-3.61,7.33-7.38l0.12-0.27
				c2.21-4.87,3.95-8.72,7.93-12.55l0.58-0.56c2.94-2.81,4.88-4.67,5.23-8.78c0.35-3.98-1.06-7.98-3.42-9.72
				c-1.59-1.17-3.53-1.31-5.73-0.42l-0.49-1.21c3.32-1.34,5.64-0.43,7,0.58c3.16,2.33,4.26,7.28,3.94,10.89
				c-0.4,4.61-2.71,6.82-5.63,9.61l-0.58,0.55c-3.8,3.66-5.5,7.41-7.65,12.15l-0.12,0.27c-1.86,4.11-4.42,6.67-8.06,8.06
				c-1.43,0.55-2.74,1.31-4,2.06C332.62,719.46,331.02,720.4,329.17,720.94z"/>
		</g>
		<g>
			<path style="fill:#0B50B9;" d="M449.84,615.5l-94.35,27.47c-2.76,0.8-5.21,2.44-7,4.69l-11.79,14.8
				c-2.82,3.54-3.74,8.22-2.48,12.57l1.7,5.84c1.26,4.34,4.56,7.8,8.84,9.27l17.89,6.16c2.72,0.94,5.66,1.01,8.42,0.2l94.35-27.47
				c7.38-2.15,11.62-9.88,9.47-17.26l-7.8-26.8C464.95,617.59,457.22,613.35,449.84,615.5z M364.25,676.49
				c-6.61,7.55-17.74,1.44-14.92-8.19c0.2-0.67,0.54-1.31,1.01-1.83c6.61-7.55,17.74-1.44,14.92,8.19
				C365.06,675.33,364.71,675.96,364.25,676.49z"/>
			<g>
				<path style="fill:#FFFFFF;" d="M381.03,676.67l-4.15-22.99l5.63-1.64c0.83-0.24,1.57-0.4,2.24-0.49
					c0.67-0.09,1.32-0.08,1.97,0.01c0.64,0.09,1.2,0.31,1.67,0.63c0.47,0.32,0.88,0.81,1.23,1.44c0.21,0.38,0.38,0.8,0.52,1.28
					c0.1,0.34,0.18,0.7,0.24,1.08c0.47,2.78-0.34,4.66-2.43,5.64c2.4-0.28,3.98,0.88,4.74,3.48c0.09,0.31,0.17,0.65,0.23,1
					c0.42,2.24,0.17,4.09-0.73,5.53c-0.91,1.45-2.41,2.48-4.52,3.09L381.03,676.67z M384.9,672.14l1.28-0.37
					c1.16-0.34,1.91-0.85,2.25-1.54c0.34-0.69,0.4-1.66,0.17-2.92c-0.06-0.32-0.13-0.63-0.21-0.9c-0.25-0.85-0.59-1.45-1.04-1.78
					c-0.59-0.44-1.47-0.49-2.64-0.15l-1.14,0.33L384.9,672.14z M383.01,661.67l1.12-0.33c1.14-0.33,1.87-0.82,2.2-1.45
					c0.33-0.63,0.38-1.53,0.17-2.7c-0.04-0.19-0.08-0.38-0.13-0.55c-0.22-0.77-0.59-1.26-1.1-1.46c-0.62-0.25-1.52-0.2-2.7,0.14
					l-0.66,0.19L383.01,661.67z"/>
				<path style="fill:#FFFFFF;" d="M396.74,672.09l-4.15-22.99l5.56-1.62c0.94-0.27,1.78-0.46,2.52-0.55
					c0.74-0.09,1.44-0.09,2.11,0.02c0.66,0.11,1.24,0.33,1.71,0.67c0.49,0.35,0.91,0.84,1.25,1.48c0.21,0.39,0.38,0.83,0.52,1.33
					c0.1,0.33,0.18,0.68,0.25,1.05c0.27,1.44,0.26,2.69-0.03,3.76c-0.28,1.07-0.88,1.98-1.8,2.73l5.33,10.27l-4.43,1.29l-4.64-9.6
					l-1.61,0.47l1.88,10.4L396.74,672.09z M398.81,657.59l1.1-0.32c1.11-0.32,1.85-0.82,2.23-1.48c0.37-0.66,0.45-1.59,0.24-2.78
					c-0.05-0.29-0.12-0.55-0.19-0.79c-0.2-0.73-0.49-1.24-0.87-1.54c-0.5-0.4-1.29-0.45-2.35-0.15l-1.36,0.4L398.81,657.59z"/>
				<path style="fill:#FFFFFF;" d="M411.3,667.85l0.25-24.27l4.84-1.41l8.53,21.72l-4.13,1.2l-1.77-4.88l-3.59,1.05l0.09,5.37
					L411.3,667.85z M415.34,658.25l2.72-0.79l-3.02-8.81L415.34,658.25z"/>
				<path style="fill:#FFFFFF;" d="M427.13,663.25l-4.15-22.99l3.11-0.91l7.25,10.66l-2.19-12.14l3.7-1.08l4.15,22.99l-2.96,0.86
					l-7.43-11.4l2.32,12.88L427.13,663.25z"/>
				<path style="fill:#FFFFFF;" d="M442.31,658.83l-4.15-22.99l5.38-1.57c1.4-0.41,2.59-0.61,3.57-0.61c0.98,0,1.81,0.22,2.48,0.66
					c0.67,0.44,1.2,1.06,1.59,1.87c0.2,0.42,0.38,0.9,0.54,1.45c0.15,0.51,0.28,1.08,0.4,1.72l1.5,8.29
					c0.32,1.77,0.36,3.26,0.13,4.45c-0.24,1.19-0.83,2.21-1.79,3.06c-0.95,0.85-2.33,1.54-4.14,2.07L442.31,658.83z M446.19,654.32
					l0.97-0.28c0.37-0.11,0.68-0.23,0.95-0.37c0.27-0.14,0.48-0.28,0.66-0.43c0.17-0.14,0.3-0.33,0.4-0.56
					c0.09-0.23,0.16-0.44,0.2-0.63c0.04-0.19,0.05-0.46,0.02-0.8c-0.03-0.34-0.06-0.63-0.09-0.89c-0.03-0.25-0.1-0.61-0.18-1.07
					l-1.63-9.07c-0.09-0.51-0.19-0.95-0.3-1.33c-0.08-0.25-0.16-0.47-0.24-0.66c-0.2-0.49-0.51-0.79-0.94-0.91
					c-0.43-0.12-1.05-0.06-1.87,0.18l-0.94,0.27L446.19,654.32z"/>
			</g>
		</g>
		<g>
			<path style="fill:#FFFFFF;" d="M357.96,676.7c-0.23,0.38-0.51,0.74-0.83,1.06c1.35,2.04,2.06,5.01,1.8,7.96
				c-0.14,1.62-1,3.71-2.08,5.35c-0.72,1.08-1.62,1.87-2.19,2.53c0.4,0.19,0.81,0.39,1.21,0.58c0.51-0.62,1.32-1.32,1.98-2.32
				c1.19-1.8,2.22-4.18,2.38-6.03C360.48,682.97,359.82,679.27,357.96,676.7z"/>
		</g>
	</g>
	<path style="fill:#F88667;" d="M438.73,619.65c-1.54-2-4.79-1.91-6.8-1.06c-1.62,0.68-1.71,2.44-1.94,5.02
		c-0.16,1.74-0.23,3.38,0.23,3.91c2.07,1.52,2.13-4.29,2.47-5.76c0,0-0.8,6.14,0.28,6.67c2.03,0.93,1.95-4.75,2.18-6.16
		c-0.38,1.34-0.42,3.83-0.14,4.2c0.01,1.1,0.85,0.88,1.05,0.76c1.03-0.63,1.03-5.27,1.03-5.27c0,0.82-0.64,3.86,0.69,3.24
		c0.87-0.4,0.92-1.72,1.08-2.42C439.2,621.42,439.08,620.1,438.73,619.65z"/>
	<path style="fill:#F88667;" d="M350.35,646.63c2.11-0.09,4.67,0.32,6.84,0.32c0.99,0,2.02-0.15,3-0.2
		c0.62-0.04,1.89-0.25,2.25,0.45c0.4,0.76-0.85,1.03-1.34,1.14c-0.71,0.15-2.18,0.06-2.31,1.01c-0.19,1.38,2.39,1.75,3.4,2.19
		c0.93,0.41,3.41,1.28,1.79,2.2c-1.09,0.62-3.4-0.79-4.33-1.17c1.22,0.34,2.29,0.78,3.39,1.41c0.63,0.36,1.88,0.87,1.88,1.58
		c0,1.05-2.31,0.42-2.88,0.17c-1.36-0.59-1.63-0.74-2.57-1.42c0.97,0.51,4.54,2.03,3.37,3.26c-0.71,0.76-3.5-1.37-4.61-1.82
		c0.61,0.56,2.44,0.86,2.29,2.05c-0.07,0.6-1.11,0.12-1.61-0.15c-0.7-0.38-1.32-0.94-2.03-1.27c-0.55-0.26-0.92-0.59-1.51-1.01
		c-1.26-0.9-2.4-1.11-3.5-2.28c-1.02-1.09-1.97-2.2-3.03-3.1C350.86,649.23,348.79,647.72,350.35,646.63z"/>
	<path style="fill:#FFFFFF;" d="M353.43,646.07l-2.99,6.91c0,0-30.86-10.01-29.41-18.11c1.27-7.11,19.22-30.94,23.14-31.8
		c5.26-1.15,7.36,11.38,4.34,14.41c-6.37,6.4-15.45,15.41-14.7,16.86C334.56,635.8,353.43,646.07,353.43,646.07z"/>
</g>
<g>
	<path style="fill:#FB961E;" d="M232.7,474.36c0.14-1.11,0.25-2.23,0.25-3.37c0-1.15-0.1-2.27-0.25-3.37l-5.2-0.82
		c-0.16-0.8-0.39-1.57-0.64-2.33l4.13-3.33c-0.87-2.1-2.03-4.05-3.39-5.83l-4.94,1.9c-0.53-0.6-1.1-1.16-1.69-1.69l1.9-4.94
		c-1.78-1.37-3.73-2.52-5.83-3.39l-3.33,4.13c-0.76-0.25-1.53-0.47-2.33-0.64l-0.81-5.2c-1.11-0.15-2.23-0.25-3.37-0.25
		c-1.15,0-2.27,0.1-3.37,0.25l-0.82,5.2c-0.79,0.16-1.57,0.39-2.33,0.64l-3.33-4.13c-2.1,0.87-4.05,2.03-5.83,3.39l1.9,4.94
		c-0.6,0.53-1.16,1.1-1.69,1.69l-4.94-1.9c-1.37,1.78-2.52,3.73-3.39,5.83l4.13,3.33c-0.25,0.76-0.47,1.53-0.64,2.33l-5.2,0.82
		c-0.15,1.11-0.25,2.23-0.25,3.37c0,1.15,0.1,2.27,0.25,3.37l5.2,0.81c0.16,0.8,0.39,1.57,0.64,2.33l-4.13,3.33
		c0.87,2.1,2.03,4.05,3.39,5.83l4.94-1.9c0.53,0.6,1.1,1.16,1.69,1.69l-1.9,4.94c1.78,1.37,3.73,2.52,5.83,3.39l3.33-4.13
		c0.76,0.25,1.53,0.47,2.33,0.64l0.82,5.2c1.11,0.15,2.23,0.25,3.37,0.25c1.15,0,2.27-0.1,3.37-0.25l0.81-5.2
		c0.8-0.16,1.57-0.39,2.33-0.64l3.33,4.13c2.1-0.87,4.05-2.03,5.83-3.39l-1.9-4.94c0.6-0.53,1.16-1.1,1.69-1.69l4.94,1.9
		c1.37-1.78,2.52-3.73,3.39-5.83l-4.13-3.33c0.25-0.76,0.47-1.53,0.64-2.33L232.7,474.36z M207.2,484.47
		c-7.45,0-13.48-6.04-13.48-13.48c0-7.45,6.04-13.48,13.48-13.48c7.44,0,13.48,6.04,13.48,13.48
		C220.68,478.43,214.64,484.47,207.2,484.47z"/>
	<g>
		<path style="fill:#110239;" d="M207.2,455.83c-8.37,0-15.16,6.79-15.16,15.16c0,8.37,6.79,15.16,15.16,15.16
			c8.37,0,15.16-6.79,15.16-15.16C222.36,462.61,215.57,455.83,207.2,455.83z M207.2,480.41c-5.21,0-9.43-4.22-9.43-9.43
			c0-5.21,4.22-9.43,9.43-9.43c5.21,0,9.43,4.22,9.43,9.43C216.62,476.19,212.4,480.41,207.2,480.41z"/>
	</g>
</g>
<g>
	<path style="fill:#FB961E;" d="M900.9,236.2c0.15-1.11,0.25-2.23,0.25-3.37c0-1.15-0.1-2.27-0.25-3.37l-5.2-0.81
		c-0.16-0.8-0.39-1.57-0.64-2.33l4.13-3.33c-0.87-2.1-2.03-4.05-3.39-5.83l-4.94,1.9c-0.53-0.6-1.1-1.16-1.69-1.69l1.9-4.94
		c-1.78-1.37-3.73-2.52-5.83-3.39l-3.33,4.13c-0.76-0.25-1.53-0.47-2.33-0.64l-0.81-5.2c-1.11-0.15-2.23-0.25-3.37-0.25
		c-1.15,0-2.27,0.1-3.37,0.25l-0.82,5.2c-0.79,0.16-1.57,0.39-2.33,0.64l-3.33-4.13c-2.1,0.87-4.05,2.03-5.83,3.39l1.9,4.94
		c-0.6,0.53-1.16,1.1-1.69,1.69l-4.94-1.9c-1.37,1.78-2.52,3.73-3.39,5.83l4.13,3.33c-0.25,0.76-0.47,1.53-0.64,2.33l-5.2,0.81
		c-0.15,1.11-0.25,2.23-0.25,3.37c0,1.15,0.1,2.27,0.25,3.37l5.2,0.81c0.16,0.8,0.39,1.57,0.64,2.33l-4.13,3.33
		c0.87,2.1,2.03,4.05,3.39,5.83l4.94-1.9c0.53,0.6,1.1,1.16,1.69,1.69l-1.9,4.94c1.78,1.37,3.73,2.52,5.83,3.39l3.33-4.13
		c0.76,0.25,1.53,0.47,2.33,0.64l0.82,5.2c1.11,0.15,2.23,0.25,3.37,0.25c1.15,0,2.27-0.1,3.37-0.25l0.81-5.2
		c0.8-0.16,1.57-0.39,2.33-0.64l3.33,4.13c2.1-0.87,4.05-2.03,5.83-3.39l-1.9-4.94c0.6-0.53,1.16-1.1,1.69-1.69l4.94,1.9
		c1.37-1.78,2.52-3.73,3.39-5.83l-4.13-3.33c0.25-0.76,0.47-1.53,0.64-2.33L900.9,236.2z M875.39,246.31
		c-7.45,0-13.48-6.04-13.48-13.48c0-7.45,6.04-13.48,13.48-13.48c7.44,0,13.48,6.04,13.48,13.48
		C888.87,240.27,882.83,246.31,875.39,246.31z"/>
	<g>
		<path style="fill:#110239;" d="M875.39,217.67c-8.37,0-15.16,6.79-15.16,15.16c0,8.37,6.79,15.16,15.16,15.16
			c8.37,0,15.16-6.79,15.16-15.16C890.55,224.45,883.76,217.67,875.39,217.67z M875.39,242.25c-5.21,0-9.43-4.22-9.43-9.43
			c0-5.21,4.22-9.43,9.43-9.43c5.21,0,9.43,4.22,9.43,9.43C884.81,238.03,880.59,242.25,875.39,242.25z"/>
	</g>
</g>
<g>
	<path style="fill:#0B50B9;" d="M612.36,198.09c0.55-1.08,1.07-2.19,1.49-3.37c0.42-1.18,0.73-2.36,0.99-3.55l-5.03-2.74
		c0.12-0.87,0.18-1.75,0.2-2.62l5.45-1.9c-0.12-2.47-0.59-4.89-1.34-7.22l-5.76,0.14c-0.33-0.81-0.7-1.59-1.11-2.36l3.76-4.36
		c-1.32-2.05-2.89-3.95-4.73-5.62l-4.93,3.01c-0.69-0.54-1.4-1.05-2.15-1.51l1.07-5.63c-1.08-0.56-2.19-1.07-3.37-1.49
		c-1.17-0.42-2.36-0.73-3.55-0.99l-2.74,5.03c-0.87-0.12-1.75-0.18-2.62-0.2l-1.9-5.45c-2.47,0.12-4.89,0.59-7.22,1.34l0.14,5.76
		c-0.81,0.33-1.59,0.7-2.36,1.11l-4.36-3.76c-2.05,1.32-3.95,2.89-5.62,4.73l3.01,4.92c-0.54,0.69-1.05,1.4-1.51,2.15l-5.63-1.07
		c-0.55,1.08-1.07,2.19-1.49,3.37c-0.42,1.17-0.73,2.36-0.99,3.55l5.03,2.74c-0.12,0.88-0.18,1.75-0.2,2.62l-5.45,1.9
		c0.12,2.47,0.59,4.89,1.34,7.22l5.76-0.14c0.33,0.81,0.7,1.59,1.11,2.36l-3.76,4.36c1.32,2.05,2.89,3.95,4.73,5.62l4.93-3.01
		c0.69,0.54,1.4,1.05,2.15,1.51l-1.07,5.63c1.08,0.55,2.19,1.07,3.37,1.49c1.17,0.42,2.36,0.73,3.55,0.99l2.74-5.03
		c0.87,0.12,1.75,0.18,2.62,0.2l1.9,5.45c2.47-0.12,4.89-0.59,7.22-1.34l-0.14-5.76c0.81-0.33,1.59-0.7,2.36-1.11l4.36,3.76
		c2.05-1.32,3.95-2.89,5.62-4.73l-3.01-4.93c0.54-0.69,1.05-1.4,1.51-2.15L612.36,198.09z M582.52,199.09
		c-7.63-2.73-11.6-11.13-8.87-18.76c2.73-7.63,11.13-11.6,18.76-8.87c7.63,2.73,11.6,11.13,8.87,18.76
		C598.55,197.85,590.15,201.82,582.52,199.09z"/>
	<g>
		<path style="fill:#110239;" d="M593.02,169.74c-8.58-3.07-18.02,1.39-21.09,9.97c-3.07,8.58,1.39,18.02,9.97,21.09
			c8.58,3.07,18.02-1.39,21.09-9.97C606.07,182.26,601.6,172.81,593.02,169.74z M584.01,194.93c-5.33-1.91-8.11-7.78-6.2-13.11
			c1.91-5.33,7.78-8.11,13.11-6.2c5.33,1.91,8.11,7.78,6.2,13.11C595.21,194.07,589.34,196.84,584.01,194.93z"/>
	</g>
</g>
</svg>
